<svg width="92" height="31" viewBox="0 0 92 31" fill="none" xmlns="http://www.w3.org/2000/svg">
<path d="M3.312 12.92L2.352 12.224L3.72 9.968L1.392 9.008L1.752 7.904L4.2 8.504L4.416 5.912H5.592L5.808 8.48L8.28 7.904L8.64 9.008L6.312 9.968L7.656 12.224L6.72 12.92L5.016 10.856L3.312 12.92ZM15.6953 23.288C14.4793 23.288 13.4633 23.072 12.6473 22.64C11.8313 22.192 11.1673 21.688 10.6553 21.128L11.6633 19.832C12.1113 20.312 12.6473 20.736 13.2713 21.104C13.9113 21.472 14.6793 21.656 15.5753 21.656C16.5033 21.656 17.2633 21.4 17.8553 20.888C18.4473 20.376 18.7433 19.696 18.7433 18.848C18.7433 17.936 18.3833 17.2 17.6633 16.64C16.9433 16.08 15.6713 15.8 13.8473 15.8V14.288C15.4793 14.288 16.6073 14.016 17.2313 13.472C17.8713 12.912 18.1913 12.232 18.1913 11.432C18.1913 10.696 17.9513 10.112 17.4713 9.68C17.0073 9.232 16.3673 9.008 15.5513 9.008C14.9113 9.008 14.3193 9.16 13.7753 9.464C13.2313 9.752 12.7353 10.12 12.2873 10.568L11.2313 9.32C11.8233 8.776 12.4793 8.32 13.1992 7.952C13.9193 7.584 14.7273 7.4 15.6233 7.4C16.9513 7.4 18.0473 7.744 18.9113 8.432C19.7753 9.104 20.2073 10.056 20.2073 11.288C20.2073 12.216 19.9513 12.976 19.4393 13.568C18.9273 14.16 18.2553 14.616 17.4233 14.936V15.032C18.3513 15.256 19.1353 15.696 19.7753 16.352C20.4153 17.008 20.7353 17.864 20.7353 18.92C20.7353 20.28 20.2473 21.352 19.2713 22.136C18.2953 22.904 17.1033 23.288 15.6953 23.288ZM24.4569 17.192H29.2569V12.752C29.2569 12.352 29.2729 11.864 29.3049 11.288C29.3369 10.712 29.3609 10.216 29.3769 9.8H29.2809C29.0889 10.168 28.8809 10.528 28.6569 10.88C28.4489 11.232 28.2409 11.592 28.0329 11.96L24.4569 17.192ZM33.2169 18.776H31.1289V23H29.2569V18.776H22.3689V17.48L28.9209 7.688H31.1289V17.192H33.2169V18.776ZM38.1386 23C38.2186 21.08 38.4186 19.36 38.7386 17.84C39.0586 16.304 39.5226 14.864 40.1306 13.52C40.7546 12.16 41.5706 10.784 42.5786 9.392H34.9466V7.688H44.8106V8.912C43.6106 10.464 42.6906 11.936 42.0506 13.328C41.4106 14.704 40.9626 16.168 40.7066 17.72C40.4506 19.256 40.2746 21.016 40.1786 23H38.1386ZM49.1323 12.92L48.1723 12.224L49.5403 9.968L47.2123 9.008L47.5723 7.904L50.0203 8.504L50.2363 5.912H51.4123L51.6283 8.48L54.1003 7.904L54.4603 9.008L52.1323 9.968L53.4763 12.224L52.5403 12.92L50.8363 10.856L49.1323 12.92ZM60.0996 23C60.1796 21.08 60.3796 19.36 60.6996 17.84C61.0196 16.304 61.4836 14.864 62.0916 13.52C62.7156 12.16 63.5316 10.784 64.5396 9.392H56.9076V7.688H66.7716V8.912C65.5716 10.464 64.6516 11.936 64.0116 13.328C63.3716 14.704 62.9236 16.168 62.6676 17.72C62.4116 19.256 62.2356 21.016 62.1396 23H60.0996ZM78.7493 18.368C78.7493 19.824 78.3013 21.008 77.4053 21.92C76.5093 22.832 75.4453 23.288 74.2133 23.288C72.7093 23.288 71.4533 22.68 70.4453 21.464C69.4373 20.232 68.9333 18.384 68.9333 15.92C68.9333 13.872 69.2053 12.224 69.7493 10.976C70.3093 9.728 71.0293 8.824 71.9093 8.264C72.8053 7.688 73.7573 7.4 74.7653 7.4C75.5973 7.4 76.3093 7.56 76.9013 7.88C77.5093 8.184 78.0293 8.568 78.4613 9.032L77.3573 10.256C76.6853 9.456 75.8453 9.056 74.8372 9.056C73.7653 9.056 72.8373 9.536 72.0533 10.496C71.2693 11.44 70.8533 13.128 70.8053 15.56C71.2853 14.984 71.8453 14.52 72.4853 14.168C73.1253 13.816 73.7573 13.64 74.3813 13.64C75.7093 13.64 76.7653 14.04 77.5493 14.84C78.3493 15.624 78.7493 16.8 78.7493 18.368ZM74.2133 21.728C74.9653 21.728 75.5973 21.424 76.1093 20.816C76.6213 20.192 76.8773 19.376 76.8773 18.368C76.8773 17.376 76.6373 16.592 76.1573 16.016C75.6933 15.424 74.9893 15.128 74.0453 15.128C73.5493 15.128 73.0133 15.288 72.4373 15.608C71.8613 15.928 71.3333 16.44 70.8533 17.144C71.1093 20.2 72.2293 21.728 74.2133 21.728ZM83.9349 16.736H87.1029L87.5349 13.184H84.3669L83.9349 16.736ZM81.8709 23L82.4709 18.104H80.5509V16.736H82.6389L83.0709 13.184H81.0309V11.792H83.2389L83.7909 7.4H85.0629L84.5109 11.792H87.7029L88.2789 7.4H89.5509L88.9749 11.792H90.9189V13.184H88.8309L88.3989 16.736H90.4389V18.104H88.2309L87.6309 23H86.3589L86.9349 18.104H83.7669L83.1669 23H81.8709Z" fill="#2B3C96"/>
<path d="M3.312 12.92L2.72503 13.7296L3.4853 14.2808L4.08315 13.5566L3.312 12.92ZM2.352 12.224L1.49692 11.7055L1.01939 12.493L1.76503 13.0336L2.352 12.224ZM3.72 9.968L4.57508 10.4865L5.18026 9.48848L4.10123 9.04352L3.72 9.968ZM1.392 9.008L0.44127 8.69798L0.153933 9.57915L1.01077 9.93248L1.392 9.008ZM1.752 7.904L1.99005 6.93275L1.08891 6.71188L0.80127 7.59398L1.752 7.904ZM4.2 8.504L3.96195 9.47525L5.0993 9.75401L5.19655 8.58704L4.2 8.504ZM4.416 5.912V4.912H3.49587L3.41945 5.82895L4.416 5.912ZM5.592 5.912L6.58848 5.82818L6.51142 4.912H5.592V5.912ZM5.808 8.48L4.81152 8.56382L4.90846 9.71639L6.03493 9.45391L5.808 8.48ZM8.28 7.904L9.23073 7.59398L8.94637 6.72194L8.05307 6.93009L8.28 7.904ZM8.64 9.008L9.02123 9.93248L9.87807 9.57915L9.59073 8.69798L8.64 9.008ZM6.312 9.968L5.93077 9.04352L4.86024 9.48498L5.4529 10.4798L6.312 9.968ZM7.656 12.224L8.2527 13.0265L8.97715 12.4878L8.5151 11.7122L7.656 12.224ZM6.72 12.92L5.94885 13.5566L6.55397 14.2896L7.3167 13.7225L6.72 12.92ZM5.016 10.856L5.78715 10.2193L5.016 9.28528L4.24485 10.2193L5.016 10.856ZM3.89897 12.1104L2.93897 11.4144L1.76503 13.0336L2.72503 13.7296L3.89897 12.1104ZM3.20708 12.7425L4.57508 10.4865L2.86492 9.4495L1.49692 11.7055L3.20708 12.7425ZM4.10123 9.04352L1.77323 8.08352L1.01077 9.93248L3.33877 10.8925L4.10123 9.04352ZM2.34273 9.31802L2.70273 8.21402L0.80127 7.59398L0.44127 8.69798L2.34273 9.31802ZM1.51395 8.87525L3.96195 9.47525L4.43805 7.53275L1.99005 6.93275L1.51395 8.87525ZM5.19655 8.58704L5.41255 5.99505L3.41945 5.82895L3.20345 8.42095L5.19655 8.58704ZM4.416 6.912H5.592V4.912H4.416V6.912ZM4.59552 5.99582L4.81152 8.56382L6.80448 8.39618L6.58848 5.82818L4.59552 5.99582ZM6.03493 9.45391L8.50693 8.87791L8.05307 6.93009L5.58107 7.50609L6.03493 9.45391ZM7.32927 8.21402L7.68927 9.31802L9.59073 8.69798L9.23073 7.59398L7.32927 8.21402ZM8.25877 8.08352L5.93077 9.04352L6.69323 10.8925L9.02123 9.93248L8.25877 8.08352ZM5.4529 10.4798L6.7969 12.7358L8.5151 11.7122L7.1711 9.45619L5.4529 10.4798ZM7.0593 11.4215L6.1233 12.1175L7.3167 13.7225L8.2527 13.0265L7.0593 11.4215ZM7.49115 12.2834L5.78715 10.2193L4.24485 11.4926L5.94885 13.5566L7.49115 12.2834ZM4.24485 10.2193L2.54085 12.2834L4.08315 13.5566L5.78715 11.4926L4.24485 10.2193ZM12.6473 22.64L12.166 23.5166L12.1726 23.5202L12.1794 23.5238L12.6473 22.64ZM10.6553 21.128L9.8659 20.5141L9.34789 21.1801L9.91722 21.8028L10.6553 21.128ZM11.6633 19.832L12.3943 19.1497L11.594 18.2922L10.8739 19.2181L11.6633 19.832ZM13.2713 21.104L12.7632 21.9654L12.7728 21.9709L13.2713 21.104ZM17.8553 20.888L17.2011 20.1316L17.2011 20.1316L17.8553 20.888ZM17.6633 16.64L18.2772 15.8506L18.2772 15.8506L17.6633 16.64ZM13.8473 15.8H12.8473V16.8H13.8473V15.8ZM13.8473 14.288V13.288H12.8473V14.288H13.8473ZM17.2313 13.472L17.8884 14.2258L17.8898 14.2246L17.2313 13.472ZM17.4713 9.68L16.7767 10.3994L16.7893 10.4116L16.8023 10.4233L17.4713 9.68ZM13.7753 9.464L14.2431 10.3478L14.2532 10.3425L14.2631 10.3369L13.7753 9.464ZM12.2873 10.568L11.5239 11.2139L12.2259 12.0436L12.9944 11.2751L12.2873 10.568ZM11.2313 9.32L10.5546 8.58367L9.84782 9.23316L10.4679 9.96594L11.2313 9.32ZM13.1992 7.952L12.7441 7.06156L12.7441 7.06156L13.1992 7.952ZM18.9113 8.432L18.2883 9.21433L18.2973 9.22135L18.9113 8.432ZM17.4233 14.936L17.0643 14.0027L16.4233 14.2492V14.936H17.4233ZM17.4233 15.032H16.4233V15.8193L17.1886 16.0041L17.4233 15.032ZM19.7753 16.352L19.0595 17.0503L19.0595 17.0503L19.7753 16.352ZM19.2713 22.136L19.8897 22.9219L19.8975 22.9156L19.2713 22.136ZM15.6953 22.288C14.5925 22.288 13.7486 22.0916 13.1151 21.7562L12.1794 23.5238C13.1779 24.0524 14.366 24.288 15.6953 24.288V22.288ZM13.1285 21.7634C12.3876 21.3566 11.8167 20.9164 11.3933 20.4532L9.91722 21.8028C10.5178 22.4596 11.2749 23.0274 12.166 23.5166L13.1285 21.7634ZM11.4446 21.7419L12.4526 20.4459L10.8739 19.2181L9.8659 20.5141L11.4446 21.7419ZM10.9322 20.5143C11.452 21.0712 12.0652 21.5537 12.7633 21.9654L13.7792 20.2426C13.2293 19.9183 12.7705 19.5528 12.3943 19.1497L10.9322 20.5143ZM12.7728 21.9709C13.5938 22.443 14.5416 22.656 15.5753 22.656V20.656C14.8169 20.656 14.2287 20.501 13.7697 20.2371L12.7728 21.9709ZM15.5753 22.656C16.6966 22.656 17.7031 22.3417 18.5094 21.6444L17.2011 20.1316C16.8234 20.4583 16.3099 20.656 15.5753 20.656V22.656ZM18.5094 21.6444C19.3409 20.9252 19.7433 19.959 19.7433 18.848H17.7433C17.7433 19.433 17.5536 19.8268 17.2011 20.1316L18.5094 21.6444ZM19.7433 18.848C19.7433 17.6274 19.2407 16.6001 18.2772 15.8506L17.0493 17.4294C17.5258 17.7999 17.7433 18.2446 17.7433 18.848H19.7433ZM18.2772 15.8506C17.2762 15.0721 15.7069 14.8 13.8473 14.8V16.8C15.6356 16.8 16.6103 17.0879 17.0493 17.4294L18.2772 15.8506ZM14.8473 15.8V14.288H12.8473V15.8H14.8473ZM13.8473 15.288C15.5195 15.288 16.973 15.0238 17.8884 14.2258L16.5741 12.7182C16.2415 13.0082 15.439 13.288 13.8473 13.288V15.288ZM17.8898 14.2246C18.7313 13.4883 19.1913 12.5403 19.1913 11.432H17.1913C17.1913 11.9237 17.0112 12.3357 16.5727 12.7194L17.8898 14.2246ZM19.1913 11.432C19.1913 10.4563 18.8614 9.5858 18.1402 8.93671L16.8023 10.4233C17.0411 10.6382 17.1913 10.9357 17.1913 11.432H19.1913ZM18.1658 8.9606C17.4694 8.28818 16.5545 8.008 15.5513 8.008V10.008C16.18 10.008 16.5451 10.1758 16.7767 10.3994L18.1658 8.9606ZM15.5513 8.008C14.7453 8.008 13.9847 8.20143 13.2874 8.59106L14.2631 10.3369C14.6538 10.1186 15.0772 10.008 15.5513 10.008V8.008ZM13.3074 8.58021C12.6727 8.91621 12.0965 9.34449 11.5801 9.86089L12.9944 11.2751C13.374 10.8955 13.7898 10.5878 14.2431 10.3478L13.3074 8.58021ZM13.0506 9.92206L11.9946 8.67406L10.4679 9.96594L11.5239 11.2139L13.0506 9.92206ZM11.9079 10.0563C12.433 9.57382 13.0144 9.16955 13.6544 8.84243L12.7441 7.06156C11.9441 7.47045 11.2135 7.97818 10.5546 8.58367L11.9079 10.0563ZM13.6544 8.84243C14.2188 8.55396 14.8681 8.4 15.6233 8.4V6.4C14.5864 6.4 13.6197 6.61404 12.7441 7.06156L13.6544 8.84243ZM15.6233 8.4C16.7724 8.4 17.6352 8.69419 18.2883 9.21428L19.5342 7.64972C18.4593 6.79381 17.1301 6.4 15.6233 6.4V8.4ZM18.2973 9.22135C18.8849 9.67836 19.2073 10.3205 19.2073 11.288H21.2073C21.2073 9.79154 20.6656 8.52964 19.5252 7.64265L18.2973 9.22135ZM19.2073 11.288C19.2073 12.0227 19.0096 12.5361 18.6829 12.9138L20.1956 14.2222C20.8929 13.4159 21.2073 12.4093 21.2073 11.288H19.2073ZM18.6829 12.9138C18.2925 13.3652 17.7644 13.7334 17.0643 14.0027L17.7822 15.8693C18.7461 15.4986 19.562 14.9548 20.1956 14.2222L18.6829 12.9138ZM16.4233 14.936V15.032H18.4233V14.936H16.4233ZM17.1886 16.0041C17.9417 16.1859 18.5565 16.5348 19.0595 17.0503L20.491 15.6537C19.714 14.8572 18.7608 14.3261 17.6579 14.0599L17.1886 16.0041ZM19.0595 17.0503C19.4893 17.4909 19.7353 18.0821 19.7353 18.92H21.7353C21.7353 17.6459 21.3412 16.5251 20.491 15.6537L19.0595 17.0503ZM19.7353 18.92C19.7353 20.0069 19.3623 20.7802 18.645 21.3564L19.8975 22.9156C21.1322 21.9238 21.7353 20.5531 21.7353 18.92H19.7353ZM18.6529 21.3501C17.8764 21.9611 16.9105 22.288 15.6953 22.288V24.288C17.296 24.288 18.7141 23.8469 19.8896 22.9219L18.6529 21.3501ZM24.4569 17.192L23.6314 16.6277L22.5622 18.192H24.4569V17.192ZM29.2569 17.192V18.192H30.2569V17.192H29.2569ZM29.3769 9.8L30.3762 9.83843L30.4161 8.8H29.3769V9.8ZM29.2809 9.8V8.8H28.6748L28.3944 9.33743L29.2809 9.8ZM28.6569 10.88L27.8133 10.3431L27.8044 10.3571L27.796 10.3713L28.6569 10.88ZM28.0329 11.96L28.8585 12.5243L28.8825 12.4891L28.9035 12.4521L28.0329 11.96ZM33.2169 18.776V19.776H34.2169V18.776H33.2169ZM31.1289 18.776V17.776H30.1289V18.776H31.1289ZM31.1289 23V24H32.1289V23H31.1289ZM29.2569 23H28.2569V24H29.2569V23ZM29.2569 18.776H30.2569V17.776H29.2569V18.776ZM22.3689 18.776H21.3689V19.776H22.3689V18.776ZM22.3689 17.48L21.5378 16.9239L21.3689 17.1763V17.48H22.3689ZM28.9209 7.688V6.688H28.3868L28.0898 7.13189L28.9209 7.688ZM31.1289 7.688H32.1289V6.688H31.1289V7.688ZM31.1289 17.192H30.1289V18.192H31.1289V17.192ZM33.2169 17.192H34.2169V16.192H33.2169V17.192ZM24.4569 18.192H29.2569V16.192H24.4569V18.192ZM30.2569 17.192V12.752H28.2569V17.192H30.2569ZM30.2569 12.752C30.2569 12.3766 30.272 11.9083 30.3034 11.3435L28.3065 11.2325C28.2739 11.8197 28.2569 12.3274 28.2569 12.752H30.2569ZM30.3034 11.3435C30.3356 10.7638 30.3599 10.2618 30.3762 9.83843L28.3777 9.76157C28.362 10.1702 28.3383 10.6602 28.3065 11.2325L30.3034 11.3435ZM29.3769 8.8H29.2809V10.8H29.3769V8.8ZM28.3944 9.33743C28.2157 9.67993 28.022 10.0151 27.8133 10.3431L29.5006 11.4169C29.7399 11.0409 29.9622 10.6561 30.1675 10.2626L28.3944 9.33743ZM27.796 10.3713C27.5846 10.729 27.3734 11.0945 27.1624 11.4679L28.9035 12.4521C29.1084 12.0895 29.3132 11.735 29.5179 11.3887L27.796 10.3713ZM27.2074 11.3957L23.6314 16.6277L25.2825 17.7563L28.8585 12.5243L27.2074 11.3957ZM33.2169 17.776H31.1289V19.776H33.2169V17.776ZM30.1289 18.776V23H32.1289V18.776H30.1289ZM31.1289 22H29.2569V24H31.1289V22ZM30.2569 23V18.776H28.2569V23H30.2569ZM29.2569 17.776H22.3689V19.776H29.2569V17.776ZM23.3689 18.776V17.48H21.3689V18.776H23.3689ZM23.2 18.0361L29.752 8.24411L28.0898 7.13189L21.5378 16.9239L23.2 18.0361ZM28.9209 8.688H31.1289V6.688H28.9209V8.688ZM30.1289 7.688V17.192H32.1289V7.688H30.1289ZM31.1289 18.192H33.2169V16.192H31.1289V18.192ZM32.2169 17.192V18.776H34.2169V17.192H32.2169ZM38.1386 23L37.1395 22.9584L37.0961 24H38.1386V23ZM38.7386 17.84L39.7172 18.046L39.7176 18.044L38.7386 17.84ZM40.1306 13.52L39.2217 13.103L39.2195 13.1078L40.1306 13.52ZM42.5786 9.392L43.3886 9.97851L44.5374 8.392H42.5786V9.392ZM34.9466 9.392H33.9466V10.392H34.9466V9.392ZM34.9466 7.688V6.688H33.9466V7.688H34.9466ZM44.8106 7.688H45.8106V6.688H44.8106V7.688ZM44.8106 8.912L45.6017 9.52368L45.8106 9.25351V8.912H44.8106ZM42.0506 13.328L42.9574 13.7497L42.9592 13.7457L42.0506 13.328ZM40.7066 17.72L41.693 17.8844L41.6933 17.8827L40.7066 17.72ZM40.1786 23V24H41.1314L41.1775 23.0483L40.1786 23ZM39.1378 23.0416C39.216 21.1645 39.4109 19.501 39.7172 18.046L37.7601 17.634C37.4264 19.219 37.2213 20.9955 37.1395 22.9584L39.1378 23.0416ZM39.7176 18.044C40.0236 16.5751 40.4658 15.2054 41.0417 13.9322L39.2195 13.1078C38.5795 14.5226 38.0936 16.0329 37.7596 17.636L39.7176 18.044ZM41.0395 13.937C41.6325 12.6446 42.4135 11.325 43.3886 9.97851L41.7687 8.80549C40.7278 10.2429 39.8768 11.6754 39.2217 13.103L41.0395 13.937ZM42.5786 8.392H34.9466V10.392H42.5786V8.392ZM35.9466 9.392V7.688H33.9466V9.392H35.9466ZM34.9466 8.688H44.8106V6.688H34.9466V8.688ZM43.8106 7.688V8.912H45.8106V7.688H43.8106ZM44.0195 8.30032C42.7854 9.89649 41.8211 11.4333 41.1421 12.9103L42.9592 13.7457C43.5601 12.4387 44.4359 11.0315 45.6017 9.52368L44.0195 8.30032ZM41.1439 12.9063C40.4642 14.3675 39.9902 15.919 39.72 17.5573L41.6933 17.8827C41.9351 16.417 42.357 15.0405 42.9573 13.7497L41.1439 12.9063ZM39.7202 17.5556C39.4564 19.1388 39.2772 20.9388 39.1798 22.9517L41.1775 23.0483C41.2721 21.0932 41.4449 19.3732 41.693 17.8844L39.7202 17.5556ZM40.1786 22H38.1386V24H40.1786V22ZM49.1323 12.92L48.5453 13.7296L49.3056 14.2808L49.9035 13.5566L49.1323 12.92ZM48.1723 12.224L47.3172 11.7055L46.8397 12.493L47.5853 13.0336L48.1723 12.224ZM49.5403 9.968L50.3954 10.4865L51.0006 9.48848L49.9215 9.04352L49.5403 9.968ZM47.2123 9.008L46.2616 8.69798L45.9742 9.57915L46.8311 9.93248L47.2123 9.008ZM47.5723 7.904L47.8104 6.93275L46.9092 6.71188L46.6216 7.59398L47.5723 7.904ZM50.0203 8.504L49.7823 9.47525L50.9196 9.75401L51.0169 8.58704L50.0203 8.504ZM50.2363 5.912V4.912H49.3162L49.2398 5.82895L50.2363 5.912ZM51.4123 5.912L52.4088 5.82818L52.3317 4.912H51.4123V5.912ZM51.6283 8.48L50.6318 8.56382L50.7288 9.71639L51.8552 9.45391L51.6283 8.48ZM54.1003 7.904L55.051 7.59398L54.7667 6.72194L53.8734 6.93009L54.1003 7.904ZM54.4603 9.008L54.8415 9.93248L55.6984 9.57915L55.411 8.69798L54.4603 9.008ZM52.1323 9.968L51.7511 9.04352L50.6805 9.48498L51.2732 10.4798L52.1323 9.968ZM53.4763 12.224L54.073 13.0265L54.7975 12.4878L54.3354 11.7122L53.4763 12.224ZM52.5403 12.92L51.7692 13.5566L52.3743 14.2896L53.137 13.7225L52.5403 12.92ZM50.8363 10.856L51.6075 10.2193L50.8363 9.28528L50.0652 10.2193L50.8363 10.856ZM49.7193 12.1104L48.7593 11.4144L47.5853 13.0336L48.5453 13.7296L49.7193 12.1104ZM49.0274 12.7425L50.3954 10.4865L48.6852 9.4495L47.3172 11.7055L49.0274 12.7425ZM49.9215 9.04352L47.5935 8.08352L46.8311 9.93248L49.1591 10.8925L49.9215 9.04352ZM48.163 9.31802L48.523 8.21402L46.6216 7.59398L46.2616 8.69798L48.163 9.31802ZM47.3343 8.87525L49.7823 9.47525L50.2584 7.53275L47.8104 6.93275L47.3343 8.87525ZM51.0169 8.58704L51.2329 5.99505L49.2398 5.82895L49.0238 8.42095L51.0169 8.58704ZM50.2363 6.912H51.4123V4.912H50.2363V6.912ZM50.4158 5.99582L50.6318 8.56382L52.6248 8.39618L52.4088 5.82818L50.4158 5.99582ZM51.8552 9.45391L54.3272 8.87791L53.8734 6.93009L51.4014 7.50609L51.8552 9.45391ZM53.1496 8.21402L53.5096 9.31802L55.411 8.69798L55.051 7.59398L53.1496 8.21402ZM54.0791 8.08352L51.7511 9.04352L52.5135 10.8925L54.8415 9.93248L54.0791 8.08352ZM51.2732 10.4798L52.6172 12.7358L54.3354 11.7122L52.9914 9.45619L51.2732 10.4798ZM52.8796 11.4215L51.9436 12.1175L53.137 13.7225L54.073 13.0265L52.8796 11.4215ZM53.3115 12.2834L51.6075 10.2193L50.0652 11.4926L51.7692 13.5566L53.3115 12.2834ZM50.0652 10.2193L48.3612 12.2834L49.9035 13.5566L51.6075 11.4926L50.0652 10.2193ZM60.0996 23L59.1004 22.9584L59.057 24H60.0996V23ZM60.6996 17.84L61.6781 18.046L61.6785 18.044L60.6996 17.84ZM62.0916 13.52L61.1827 13.103L61.1805 13.1078L62.0916 13.52ZM64.5396 9.392L65.3495 9.97851L66.4984 8.392H64.5396V9.392ZM56.9076 9.392H55.9076V10.392H56.9076V9.392ZM56.9076 7.688V6.688H55.9076V7.688H56.9076ZM66.7716 7.688H67.7716V6.688H66.7716V7.688ZM66.7716 8.912L67.5627 9.52368L67.7716 9.25351V8.912H66.7716ZM64.0116 13.328L64.9183 13.7497L64.9201 13.7457L64.0116 13.328ZM62.6676 17.72L63.654 17.8844L63.6542 17.8827L62.6676 17.72ZM62.1396 23V24H63.0923L63.1384 23.0483L62.1396 23ZM61.0987 23.0416C61.1769 21.1645 61.3718 19.501 61.6781 18.046L59.721 17.634C59.3873 19.219 59.1822 20.9955 59.1004 22.9584L61.0987 23.0416ZM61.6785 18.044C61.9846 16.5751 62.4267 15.2054 63.0027 13.9322L61.1805 13.1078C60.5404 14.5226 60.0546 16.0329 59.7206 17.636L61.6785 18.044ZM63.0005 13.937C63.5934 12.6446 64.3744 11.325 65.3495 9.97851L63.7296 8.80549C62.6887 10.2429 61.8377 11.6754 61.1827 13.103L63.0005 13.937ZM64.5396 8.392H56.9076V10.392H64.5396V8.392ZM57.9076 9.392V7.688H55.9076V9.392H57.9076ZM56.9076 8.688H66.7716V6.688H56.9076V8.688ZM65.7716 7.688V8.912H67.7716V7.688H65.7716ZM65.9805 8.30032C64.7463 9.89649 63.7821 11.4333 63.103 12.9103L64.9201 13.7457C65.5211 12.4387 66.3968 11.0315 67.5627 9.52368L65.9805 8.30032ZM63.1048 12.9063C62.4252 14.3675 61.9511 15.919 61.6809 17.5573L63.6542 17.8827C63.896 16.417 64.3179 15.0405 64.9183 13.7497L63.1048 12.9063ZM61.6812 17.5556C61.4173 19.1388 61.2381 20.9388 61.1407 22.9517L63.1384 23.0483C63.233 21.0932 63.4058 19.3732 63.654 17.8844L61.6812 17.5556ZM62.1396 22H60.0996V24H62.1396V22ZM77.4053 21.92L78.1186 22.6208L77.4053 21.92ZM70.4453 21.464L69.6713 22.0973L69.6754 22.1022L70.4453 21.464ZM69.7493 10.976L68.8368 10.5666L68.8326 10.5764L69.7493 10.976ZM71.9093 8.264L72.4461 9.10767L72.45 9.10518L71.9093 8.264ZM76.9013 7.88L76.4257 8.75971L76.4398 8.76729L76.454 8.77443L76.9013 7.88ZM78.4613 9.032L79.2038 9.70177L79.8176 9.02128L79.1931 8.35058L78.4613 9.032ZM77.3573 10.256L76.5915 10.8992L77.3304 11.7788L78.0998 10.9258L77.3573 10.256ZM72.0533 10.496L72.8226 11.1349L72.8278 11.1285L72.0533 10.496ZM70.8053 15.56L69.8054 15.5403L69.7492 18.3893L71.5735 16.2002L70.8053 15.56ZM72.4853 14.168L72.0033 13.2918L72.0033 13.2918L72.4853 14.168ZM77.5493 14.84L76.835 15.5399L76.8421 15.5471L76.8493 15.5542L77.5493 14.84ZM76.1093 20.816L76.8742 21.4602L76.8823 21.4503L76.1093 20.816ZM76.1573 16.016L75.3702 16.6329L75.3794 16.6447L75.389 16.6562L76.1573 16.016ZM72.4373 15.608L71.9516 14.7338L71.9516 14.7338L72.4373 15.608ZM70.8533 17.144L70.027 16.5807L69.8271 16.8739L69.8567 17.2275L70.8533 17.144ZM77.7493 18.368C77.7493 19.6013 77.3783 20.5206 76.6919 21.2192L78.1186 22.6208C79.2242 21.4954 79.7493 20.0467 79.7493 18.368H77.7493ZM76.6919 21.2192C75.976 21.9479 75.1658 22.288 74.2133 22.288V24.288C75.7247 24.288 77.0425 23.7161 78.1186 22.6208L76.6919 21.2192ZM74.2133 22.288C73.0237 22.288 72.0441 21.8258 71.2151 20.8258L69.6754 22.1022C70.8624 23.5342 72.3948 24.288 74.2133 24.288V22.288ZM71.2192 20.8308C70.4186 19.8523 69.9333 18.2731 69.9333 15.92H67.9333C67.9333 18.4949 68.4559 20.6117 69.6713 22.0972L71.2192 20.8308ZM69.9333 15.92C69.9333 13.9466 70.1974 12.4504 70.6659 11.3756L68.8326 10.5764C68.2131 11.9976 67.9333 13.7974 67.9333 15.92H69.9333ZM70.6616 11.3854C71.1661 10.2611 71.7752 9.5346 72.4461 9.10766L71.3724 7.42034C70.2833 8.1134 69.4524 9.19494 68.8369 10.5666L70.6616 11.3854ZM72.45 9.10518C73.1943 8.6267 73.9601 8.4 74.7653 8.4V6.4C73.5544 6.4 72.4162 6.7493 71.3685 7.42282L72.45 9.10518ZM74.7653 8.4C75.4699 8.4 76.0104 8.53521 76.4257 8.75971L77.3768 7.00029C76.6081 6.58479 75.7246 6.4 74.7653 6.4V8.4ZM76.454 8.77443C76.9629 9.02888 77.3845 9.34299 77.7294 9.71342L79.1931 8.35058C78.674 7.79301 78.0556 7.33912 77.3485 6.98557L76.454 8.77443ZM77.7187 8.36223L76.6147 9.58623L78.0998 10.9258L79.2038 9.70177L77.7187 8.36223ZM78.123 9.61281C77.2689 8.5961 76.1528 8.056 74.8372 8.056V10.056C75.5377 10.056 76.1016 10.3159 76.5915 10.8992L78.123 9.61281ZM74.8372 8.056C73.4161 8.056 72.2194 8.7116 71.2787 9.86346L72.8278 11.1285C73.4551 10.3604 74.1144 10.056 74.8372 10.056V8.056ZM71.284 9.8571C70.2688 11.0794 69.8542 13.07 69.8054 15.5403L71.8051 15.5797C71.8523 13.186 72.2697 11.8006 72.8225 11.1349L71.284 9.8571ZM71.5735 16.2002C71.9758 15.7174 72.4394 15.3345 72.9672 15.0442L72.0033 13.2918C71.2511 13.7055 70.5947 14.2506 70.037 14.9198L71.5735 16.2002ZM72.9672 15.0442C73.4848 14.7595 73.9524 14.64 74.3813 14.64V12.64C73.5621 12.64 72.7657 12.8725 72.0033 13.2918L72.9672 15.0442ZM74.3813 14.64C75.4943 14.64 76.2737 14.9671 76.835 15.5399L78.2635 14.1401C77.2568 13.1129 75.9242 12.64 74.3813 12.64V14.64ZM76.8493 15.5542C77.3913 16.0853 77.7493 16.9593 77.7493 18.368H79.7493C79.7493 16.6407 79.3072 15.1627 78.2492 14.1258L76.8493 15.5542ZM74.2133 22.728C75.2789 22.728 76.1845 22.2791 76.8742 21.4601L75.3443 20.1719C75.01 20.5689 74.6516 20.728 74.2133 20.728V22.728ZM76.8823 21.4503C77.5746 20.6066 77.8773 19.5482 77.8773 18.368H75.8773C75.8773 19.2038 75.6679 19.7774 75.3362 20.1817L76.8823 21.4503ZM77.8773 18.368C77.8773 17.2183 77.5977 16.1825 76.9255 15.3758L75.389 16.6562C75.6768 17.0015 75.8773 17.5337 75.8773 18.368H77.8773ZM76.9443 15.3991C76.2433 14.5047 75.2104 14.128 74.0453 14.128V16.128C74.7681 16.128 75.1432 16.3433 75.3702 16.6329L76.9443 15.3991ZM74.0453 14.128C73.3325 14.128 72.6291 14.3575 71.9516 14.7338L72.9229 16.4822C73.3974 16.2185 73.766 16.128 74.0453 16.128V14.128ZM71.9516 14.7338C71.2055 15.1484 70.5699 15.7844 70.027 16.5807L71.6795 17.7073C72.0966 17.0956 72.517 16.7076 72.9229 16.4822L71.9516 14.7338ZM69.8567 17.2275C69.9915 18.8365 70.3619 20.1953 71.0787 21.1732C71.8373 22.2081 72.9203 22.728 74.2133 22.728V20.728C73.5222 20.728 73.0532 20.4839 72.6918 19.9908C72.2886 19.4407 71.971 18.5075 71.8498 17.0605L69.8567 17.2275ZM83.9349 16.736L82.9423 16.6153L82.8059 17.736H83.9349V16.736ZM87.1029 16.736V17.736H87.9887L88.0956 16.8567L87.1029 16.736ZM87.5349 13.184L88.5276 13.3047L88.6639 12.184H87.5349V13.184ZM84.3669 13.184V12.184H83.4812L83.3743 13.0633L84.3669 13.184ZM81.8709 23L80.8784 22.8784L80.7409 24H81.8709V23ZM82.4709 18.104L83.4635 18.2256L83.601 17.104H82.4709V18.104ZM80.5509 18.104H79.5509V19.104H80.5509V18.104ZM80.5509 16.736V15.736H79.5509V16.736H80.5509ZM82.6389 16.736V17.736H83.5247L83.6316 16.8567L82.6389 16.736ZM83.0709 13.184L84.0636 13.3047L84.1999 12.184H83.0709V13.184ZM81.0309 13.184H80.0309V14.184H81.0309V13.184ZM81.0309 11.792V10.792H80.0309V11.792H81.0309ZM83.2389 11.792V12.792H84.1211L84.2311 11.9167L83.2389 11.792ZM83.7909 7.4V6.4H82.9088L82.7987 7.2753L83.7909 7.4ZM85.0629 7.4L86.0551 7.5247L86.1965 6.4H85.0629V7.4ZM84.5109 11.792L83.5187 11.6673L83.3774 12.792H84.5109V11.792ZM87.7029 11.792V12.792H88.5804L88.6944 11.922L87.7029 11.792ZM88.2789 7.4V6.4H87.4015L87.2874 7.26997L88.2789 7.4ZM89.5509 7.4L90.5424 7.53003L90.6906 6.4H89.5509V7.4ZM88.9749 11.792L87.9834 11.662L87.8352 12.792H88.9749V11.792ZM90.9189 11.792H91.9189V10.792H90.9189V11.792ZM90.9189 13.184V14.184H91.9189V13.184H90.9189ZM88.8309 13.184V12.184H87.9452L87.8383 13.0633L88.8309 13.184ZM88.3989 16.736L87.4063 16.6153L87.2699 17.736H88.3989V16.736ZM90.4389 16.736H91.4389V15.736H90.4389V16.736ZM90.4389 18.104V19.104H91.4389V18.104H90.4389ZM88.2309 18.104V17.104H87.346L87.2384 17.9824L88.2309 18.104ZM87.6309 23V24H88.5159L88.6235 23.1216L87.6309 23ZM86.3589 23L85.3658 22.8832L85.2344 24H86.3589V23ZM86.9349 18.104L87.9281 18.2208L88.0595 17.104H86.9349V18.104ZM83.7669 18.104V17.104H82.882L82.7744 17.9824L83.7669 18.104ZM83.1669 23V24H84.0519L84.1595 23.1216L83.1669 23ZM83.9349 17.736H87.1029V15.736H83.9349V17.736ZM88.0956 16.8567L88.5276 13.3047L86.5423 13.0633L86.1103 16.6153L88.0956 16.8567ZM87.5349 12.184H84.3669V14.184H87.5349V12.184ZM83.3743 13.0633L82.9423 16.6153L84.9276 16.8567L85.3596 13.3047L83.3743 13.0633ZM82.8635 23.1216L83.4635 18.2256L81.4784 17.9824L80.8784 22.8784L82.8635 23.1216ZM82.4709 17.104H80.5509V19.104H82.4709V17.104ZM81.5509 18.104V16.736H79.5509V18.104H81.5509ZM80.5509 17.736H82.6389V15.736H80.5509V17.736ZM83.6316 16.8567L84.0636 13.3047L82.0783 13.0633L81.6463 16.6153L83.6316 16.8567ZM83.0709 12.184H81.0309V14.184H83.0709V12.184ZM82.0309 13.184V11.792H80.0309V13.184H82.0309ZM81.0309 12.792H83.2389V10.792H81.0309V12.792ZM84.2311 11.9167L84.7831 7.5247L82.7987 7.2753L82.2467 11.6673L84.2311 11.9167ZM83.7909 8.4H85.0629V6.4H83.7909V8.4ZM84.0707 7.2753L83.5187 11.6673L85.5031 11.9167L86.0551 7.5247L84.0707 7.2753ZM84.5109 12.792H87.7029V10.792H84.5109V12.792ZM88.6944 11.922L89.2704 7.53003L87.2874 7.26997L86.7114 11.662L88.6944 11.922ZM88.2789 8.4H89.5509V6.4H88.2789V8.4ZM88.5594 7.26997L87.9834 11.662L89.9664 11.922L90.5424 7.53003L88.5594 7.26997ZM88.9749 12.792H90.9189V10.792H88.9749V12.792ZM89.9189 11.792V13.184H91.9189V11.792H89.9189ZM90.9189 12.184H88.8309V14.184H90.9189V12.184ZM87.8383 13.0633L87.4063 16.6153L89.3916 16.8567L89.8236 13.3047L87.8383 13.0633ZM88.3989 17.736H90.4389V15.736H88.3989V17.736ZM89.4389 16.736V18.104H91.4389V16.736H89.4389ZM90.4389 17.104H88.2309V19.104H90.4389V17.104ZM87.2384 17.9824L86.6384 22.8784L88.6235 23.1216L89.2235 18.2256L87.2384 17.9824ZM87.6309 22H86.3589V24H87.6309V22ZM87.3521 23.1168L87.9281 18.2208L85.9418 17.9872L85.3658 22.8832L87.3521 23.1168ZM86.9349 17.104H83.7669V19.104H86.9349V17.104ZM82.7744 17.9824L82.1744 22.8784L84.1595 23.1216L84.7595 18.2256L82.7744 17.9824ZM83.1669 22H81.8709V24H83.1669V22Z" fill="#2B3C96"/>
<path d="M3.312 12.92L2.72503 13.7296L3.4853 14.2808L4.08315 13.5566L3.312 12.92ZM2.352 12.224L1.49692 11.7055L1.01939 12.493L1.76503 13.0336L2.352 12.224ZM3.72 9.968L4.57508 10.4865L5.18026 9.48848L4.10123 9.04352L3.72 9.968ZM1.392 9.008L0.44127 8.69798L0.153933 9.57915L1.01077 9.93248L1.392 9.008ZM1.752 7.904L1.99005 6.93275L1.08891 6.71188L0.80127 7.59398L1.752 7.904ZM4.2 8.504L3.96195 9.47525L5.0993 9.75401L5.19655 8.58704L4.2 8.504ZM4.416 5.912V4.912H3.49587L3.41945 5.82895L4.416 5.912ZM5.592 5.912L6.58848 5.82818L6.51142 4.912H5.592V5.912ZM5.808 8.48L4.81152 8.56382L4.90846 9.71639L6.03493 9.45391L5.808 8.48ZM8.28 7.904L9.23073 7.59398L8.94637 6.72194L8.05307 6.93009L8.28 7.904ZM8.64 9.008L9.02123 9.93248L9.87807 9.57915L9.59073 8.69798L8.64 9.008ZM6.312 9.968L5.93077 9.04352L4.86024 9.48498L5.4529 10.4798L6.312 9.968ZM7.656 12.224L8.2527 13.0265L8.97715 12.4878L8.5151 11.7122L7.656 12.224ZM6.72 12.92L5.94885 13.5566L6.55397 14.2896L7.3167 13.7225L6.72 12.92ZM5.016 10.856L5.78715 10.2193L5.016 9.28528L4.24485 10.2193L5.016 10.856ZM3.89897 12.1104L2.93897 11.4144L1.76503 13.0336L2.72503 13.7296L3.89897 12.1104ZM3.20708 12.7425L4.57508 10.4865L2.86492 9.4495L1.49692 11.7055L3.20708 12.7425ZM4.10123 9.04352L1.77323 8.08352L1.01077 9.93248L3.33877 10.8925L4.10123 9.04352ZM2.34273 9.31802L2.70273 8.21402L0.80127 7.59398L0.44127 8.69798L2.34273 9.31802ZM1.51395 8.87525L3.96195 9.47525L4.43805 7.53275L1.99005 6.93275L1.51395 8.87525ZM5.19655 8.58704L5.41255 5.99505L3.41945 5.82895L3.20345 8.42095L5.19655 8.58704ZM4.416 6.912H5.592V4.912H4.416V6.912ZM4.59552 5.99582L4.81152 8.56382L6.80448 8.39618L6.58848 5.82818L4.59552 5.99582ZM6.03493 9.45391L8.50693 8.87791L8.05307 6.93009L5.58107 7.50609L6.03493 9.45391ZM7.32927 8.21402L7.68927 9.31802L9.59073 8.69798L9.23073 7.59398L7.32927 8.21402ZM8.25877 8.08352L5.93077 9.04352L6.69323 10.8925L9.02123 9.93248L8.25877 8.08352ZM5.4529 10.4798L6.7969 12.7358L8.5151 11.7122L7.1711 9.45619L5.4529 10.4798ZM7.0593 11.4215L6.1233 12.1175L7.3167 13.7225L8.2527 13.0265L7.0593 11.4215ZM7.49115 12.2834L5.78715 10.2193L4.24485 11.4926L5.94885 13.5566L7.49115 12.2834ZM4.24485 10.2193L2.54085 12.2834L4.08315 13.5566L5.78715 11.4926L4.24485 10.2193ZM12.6473 22.64L12.166 23.5166L12.1726 23.5202L12.1794 23.5238L12.6473 22.64ZM10.6553 21.128L9.8659 20.5141L9.34789 21.1801L9.91722 21.8028L10.6553 21.128ZM11.6633 19.832L12.3943 19.1497L11.594 18.2922L10.8739 19.2181L11.6633 19.832ZM13.2713 21.104L12.7632 21.9654L12.7728 21.9709L13.2713 21.104ZM17.8553 20.888L17.2011 20.1316L17.2011 20.1316L17.8553 20.888ZM17.6633 16.64L18.2772 15.8506L18.2772 15.8506L17.6633 16.64ZM13.8473 15.8H12.8473V16.8H13.8473V15.8ZM13.8473 14.288V13.288H12.8473V14.288H13.8473ZM17.2313 13.472L17.8884 14.2258L17.8898 14.2246L17.2313 13.472ZM17.4713 9.68L16.7767 10.3994L16.7893 10.4116L16.8023 10.4233L17.4713 9.68ZM13.7753 9.464L14.2431 10.3478L14.2532 10.3425L14.2631 10.3369L13.7753 9.464ZM12.2873 10.568L11.5239 11.2139L12.2259 12.0436L12.9944 11.2751L12.2873 10.568ZM11.2313 9.32L10.5546 8.58367L9.84782 9.23316L10.4679 9.96594L11.2313 9.32ZM13.1992 7.952L12.7441 7.06156L12.7441 7.06156L13.1992 7.952ZM18.9113 8.432L18.2883 9.21433L18.2973 9.22135L18.9113 8.432ZM17.4233 14.936L17.0643 14.0027L16.4233 14.2492V14.936H17.4233ZM17.4233 15.032H16.4233V15.8193L17.1886 16.0041L17.4233 15.032ZM19.7753 16.352L19.0595 17.0503L19.0595 17.0503L19.7753 16.352ZM19.2713 22.136L19.8897 22.9219L19.8975 22.9156L19.2713 22.136ZM15.6953 22.288C14.5925 22.288 13.7486 22.0916 13.1151 21.7562L12.1794 23.5238C13.1779 24.0524 14.366 24.288 15.6953 24.288V22.288ZM13.1285 21.7634C12.3876 21.3566 11.8167 20.9164 11.3933 20.4532L9.91722 21.8028C10.5178 22.4596 11.2749 23.0274 12.166 23.5166L13.1285 21.7634ZM11.4446 21.7419L12.4526 20.4459L10.8739 19.2181L9.8659 20.5141L11.4446 21.7419ZM10.9322 20.5143C11.452 21.0712 12.0652 21.5537 12.7633 21.9654L13.7792 20.2426C13.2293 19.9183 12.7705 19.5528 12.3943 19.1497L10.9322 20.5143ZM12.7728 21.9709C13.5938 22.443 14.5416 22.656 15.5753 22.656V20.656C14.8169 20.656 14.2287 20.501 13.7697 20.2371L12.7728 21.9709ZM15.5753 22.656C16.6966 22.656 17.7031 22.3417 18.5094 21.6444L17.2011 20.1316C16.8234 20.4583 16.3099 20.656 15.5753 20.656V22.656ZM18.5094 21.6444C19.3409 20.9252 19.7433 19.959 19.7433 18.848H17.7433C17.7433 19.433 17.5536 19.8268 17.2011 20.1316L18.5094 21.6444ZM19.7433 18.848C19.7433 17.6274 19.2407 16.6001 18.2772 15.8506L17.0493 17.4294C17.5258 17.7999 17.7433 18.2446 17.7433 18.848H19.7433ZM18.2772 15.8506C17.2762 15.0721 15.7069 14.8 13.8473 14.8V16.8C15.6356 16.8 16.6103 17.0879 17.0493 17.4294L18.2772 15.8506ZM14.8473 15.8V14.288H12.8473V15.8H14.8473ZM13.8473 15.288C15.5195 15.288 16.973 15.0238 17.8884 14.2258L16.5741 12.7182C16.2415 13.0082 15.439 13.288 13.8473 13.288V15.288ZM17.8898 14.2246C18.7313 13.4883 19.1913 12.5403 19.1913 11.432H17.1913C17.1913 11.9237 17.0112 12.3357 16.5727 12.7194L17.8898 14.2246ZM19.1913 11.432C19.1913 10.4563 18.8614 9.5858 18.1402 8.93671L16.8023 10.4233C17.0411 10.6382 17.1913 10.9357 17.1913 11.432H19.1913ZM18.1658 8.9606C17.4694 8.28818 16.5545 8.008 15.5513 8.008V10.008C16.18 10.008 16.5451 10.1758 16.7767 10.3994L18.1658 8.9606ZM15.5513 8.008C14.7453 8.008 13.9847 8.20143 13.2874 8.59106L14.2631 10.3369C14.6538 10.1186 15.0772 10.008 15.5513 10.008V8.008ZM13.3074 8.58021C12.6727 8.91621 12.0965 9.34449 11.5801 9.86089L12.9944 11.2751C13.374 10.8955 13.7898 10.5878 14.2431 10.3478L13.3074 8.58021ZM13.0506 9.92206L11.9946 8.67406L10.4679 9.96594L11.5239 11.2139L13.0506 9.92206ZM11.9079 10.0563C12.433 9.57382 13.0144 9.16955 13.6544 8.84243L12.7441 7.06156C11.9441 7.47045 11.2135 7.97818 10.5546 8.58367L11.9079 10.0563ZM13.6544 8.84243C14.2188 8.55396 14.8681 8.4 15.6233 8.4V6.4C14.5864 6.4 13.6197 6.61404 12.7441 7.06156L13.6544 8.84243ZM15.6233 8.4C16.7724 8.4 17.6352 8.69419 18.2883 9.21428L19.5342 7.64972C18.4593 6.79381 17.1301 6.4 15.6233 6.4V8.4ZM18.2973 9.22135C18.8849 9.67836 19.2073 10.3205 19.2073 11.288H21.2073C21.2073 9.79154 20.6656 8.52964 19.5252 7.64265L18.2973 9.22135ZM19.2073 11.288C19.2073 12.0227 19.0096 12.5361 18.6829 12.9138L20.1956 14.2222C20.8929 13.4159 21.2073 12.4093 21.2073 11.288H19.2073ZM18.6829 12.9138C18.2925 13.3652 17.7644 13.7334 17.0643 14.0027L17.7822 15.8693C18.7461 15.4986 19.562 14.9548 20.1956 14.2222L18.6829 12.9138ZM16.4233 14.936V15.032H18.4233V14.936H16.4233ZM17.1886 16.0041C17.9417 16.1859 18.5565 16.5348 19.0595 17.0503L20.491 15.6537C19.714 14.8572 18.7608 14.3261 17.6579 14.0599L17.1886 16.0041ZM19.0595 17.0503C19.4893 17.4909 19.7353 18.0821 19.7353 18.92H21.7353C21.7353 17.6459 21.3412 16.5251 20.491 15.6537L19.0595 17.0503ZM19.7353 18.92C19.7353 20.0069 19.3623 20.7802 18.645 21.3564L19.8975 22.9156C21.1322 21.9238 21.7353 20.5531 21.7353 18.92H19.7353ZM18.6529 21.3501C17.8764 21.9611 16.9105 22.288 15.6953 22.288V24.288C17.296 24.288 18.7141 23.8469 19.8896 22.9219L18.6529 21.3501ZM24.4569 17.192L23.6314 16.6277L22.5622 18.192H24.4569V17.192ZM29.2569 17.192V18.192H30.2569V17.192H29.2569ZM29.3769 9.8L30.3762 9.83843L30.4161 8.8H29.3769V9.8ZM29.2809 9.8V8.8H28.6748L28.3944 9.33743L29.2809 9.8ZM28.6569 10.88L27.8133 10.3431L27.8044 10.3571L27.796 10.3713L28.6569 10.88ZM28.0329 11.96L28.8585 12.5243L28.8825 12.4891L28.9035 12.4521L28.0329 11.96ZM33.2169 18.776V19.776H34.2169V18.776H33.2169ZM31.1289 18.776V17.776H30.1289V18.776H31.1289ZM31.1289 23V24H32.1289V23H31.1289ZM29.2569 23H28.2569V24H29.2569V23ZM29.2569 18.776H30.2569V17.776H29.2569V18.776ZM22.3689 18.776H21.3689V19.776H22.3689V18.776ZM22.3689 17.48L21.5378 16.9239L21.3689 17.1763V17.48H22.3689ZM28.9209 7.688V6.688H28.3868L28.0898 7.13189L28.9209 7.688ZM31.1289 7.688H32.1289V6.688H31.1289V7.688ZM31.1289 17.192H30.1289V18.192H31.1289V17.192ZM33.2169 17.192H34.2169V16.192H33.2169V17.192ZM24.4569 18.192H29.2569V16.192H24.4569V18.192ZM30.2569 17.192V12.752H28.2569V17.192H30.2569ZM30.2569 12.752C30.2569 12.3766 30.272 11.9083 30.3034 11.3435L28.3065 11.2325C28.2739 11.8197 28.2569 12.3274 28.2569 12.752H30.2569ZM30.3034 11.3435C30.3356 10.7638 30.3599 10.2618 30.3762 9.83843L28.3777 9.76157C28.362 10.1702 28.3383 10.6602 28.3065 11.2325L30.3034 11.3435ZM29.3769 8.8H29.2809V10.8H29.3769V8.8ZM28.3944 9.33743C28.2157 9.67993 28.022 10.0151 27.8133 10.3431L29.5006 11.4169C29.7399 11.0409 29.9622 10.6561 30.1675 10.2626L28.3944 9.33743ZM27.796 10.3713C27.5846 10.729 27.3734 11.0945 27.1624 11.4679L28.9035 12.4521C29.1084 12.0895 29.3132 11.735 29.5179 11.3887L27.796 10.3713ZM27.2074 11.3957L23.6314 16.6277L25.2825 17.7563L28.8585 12.5243L27.2074 11.3957ZM33.2169 17.776H31.1289V19.776H33.2169V17.776ZM30.1289 18.776V23H32.1289V18.776H30.1289ZM31.1289 22H29.2569V24H31.1289V22ZM30.2569 23V18.776H28.2569V23H30.2569ZM29.2569 17.776H22.3689V19.776H29.2569V17.776ZM23.3689 18.776V17.48H21.3689V18.776H23.3689ZM23.2 18.0361L29.752 8.24411L28.0898 7.13189L21.5378 16.9239L23.2 18.0361ZM28.9209 8.688H31.1289V6.688H28.9209V8.688ZM30.1289 7.688V17.192H32.1289V7.688H30.1289ZM31.1289 18.192H33.2169V16.192H31.1289V18.192ZM32.2169 17.192V18.776H34.2169V17.192H32.2169ZM38.1386 23L37.1395 22.9584L37.0961 24H38.1386V23ZM38.7386 17.84L39.7172 18.046L39.7176 18.044L38.7386 17.84ZM40.1306 13.52L39.2217 13.103L39.2195 13.1078L40.1306 13.52ZM42.5786 9.392L43.3886 9.97851L44.5374 8.392H42.5786V9.392ZM34.9466 9.392H33.9466V10.392H34.9466V9.392ZM34.9466 7.688V6.688H33.9466V7.688H34.9466ZM44.8106 7.688H45.8106V6.688H44.8106V7.688ZM44.8106 8.912L45.6017 9.52368L45.8106 9.25351V8.912H44.8106ZM42.0506 13.328L42.9574 13.7497L42.9592 13.7457L42.0506 13.328ZM40.7066 17.72L41.693 17.8844L41.6933 17.8827L40.7066 17.72ZM40.1786 23V24H41.1314L41.1775 23.0483L40.1786 23ZM39.1378 23.0416C39.216 21.1645 39.4109 19.501 39.7172 18.046L37.7601 17.634C37.4264 19.219 37.2213 20.9955 37.1395 22.9584L39.1378 23.0416ZM39.7176 18.044C40.0236 16.5751 40.4658 15.2054 41.0417 13.9322L39.2195 13.1078C38.5795 14.5226 38.0936 16.0329 37.7596 17.636L39.7176 18.044ZM41.0395 13.937C41.6325 12.6446 42.4135 11.325 43.3886 9.97851L41.7687 8.80549C40.7278 10.2429 39.8768 11.6754 39.2217 13.103L41.0395 13.937ZM42.5786 8.392H34.9466V10.392H42.5786V8.392ZM35.9466 9.392V7.688H33.9466V9.392H35.9466ZM34.9466 8.688H44.8106V6.688H34.9466V8.688ZM43.8106 7.688V8.912H45.8106V7.688H43.8106ZM44.0195 8.30032C42.7854 9.89649 41.8211 11.4333 41.1421 12.9103L42.9592 13.7457C43.5601 12.4387 44.4359 11.0315 45.6017 9.52368L44.0195 8.30032ZM41.1439 12.9063C40.4642 14.3675 39.9902 15.919 39.72 17.5573L41.6933 17.8827C41.9351 16.417 42.357 15.0405 42.9573 13.7497L41.1439 12.9063ZM39.7202 17.5556C39.4564 19.1388 39.2772 20.9388 39.1798 22.9517L41.1775 23.0483C41.2721 21.0932 41.4449 19.3732 41.693 17.8844L39.7202 17.5556ZM40.1786 22H38.1386V24H40.1786V22ZM49.1323 12.92L48.5453 13.7296L49.3056 14.2808L49.9035 13.5566L49.1323 12.92ZM48.1723 12.224L47.3172 11.7055L46.8397 12.493L47.5853 13.0336L48.1723 12.224ZM49.5403 9.968L50.3954 10.4865L51.0006 9.48848L49.9215 9.04352L49.5403 9.968ZM47.2123 9.008L46.2616 8.69798L45.9742 9.57915L46.8311 9.93248L47.2123 9.008ZM47.5723 7.904L47.8104 6.93275L46.9092 6.71188L46.6216 7.59398L47.5723 7.904ZM50.0203 8.504L49.7823 9.47525L50.9196 9.75401L51.0169 8.58704L50.0203 8.504ZM50.2363 5.912V4.912H49.3162L49.2398 5.82895L50.2363 5.912ZM51.4123 5.912L52.4088 5.82818L52.3317 4.912H51.4123V5.912ZM51.6283 8.48L50.6318 8.56382L50.7288 9.71639L51.8552 9.45391L51.6283 8.48ZM54.1003 7.904L55.051 7.59398L54.7667 6.72194L53.8734 6.93009L54.1003 7.904ZM54.4603 9.008L54.8415 9.93248L55.6984 9.57915L55.411 8.69798L54.4603 9.008ZM52.1323 9.968L51.7511 9.04352L50.6805 9.48498L51.2732 10.4798L52.1323 9.968ZM53.4763 12.224L54.073 13.0265L54.7975 12.4878L54.3354 11.7122L53.4763 12.224ZM52.5403 12.92L51.7692 13.5566L52.3743 14.2896L53.137 13.7225L52.5403 12.92ZM50.8363 10.856L51.6075 10.2193L50.8363 9.28528L50.0652 10.2193L50.8363 10.856ZM49.7193 12.1104L48.7593 11.4144L47.5853 13.0336L48.5453 13.7296L49.7193 12.1104ZM49.0274 12.7425L50.3954 10.4865L48.6852 9.4495L47.3172 11.7055L49.0274 12.7425ZM49.9215 9.04352L47.5935 8.08352L46.8311 9.93248L49.1591 10.8925L49.9215 9.04352ZM48.163 9.31802L48.523 8.21402L46.6216 7.59398L46.2616 8.69798L48.163 9.31802ZM47.3343 8.87525L49.7823 9.47525L50.2584 7.53275L47.8104 6.93275L47.3343 8.87525ZM51.0169 8.58704L51.2329 5.99505L49.2398 5.82895L49.0238 8.42095L51.0169 8.58704ZM50.2363 6.912H51.4123V4.912H50.2363V6.912ZM50.4158 5.99582L50.6318 8.56382L52.6248 8.39618L52.4088 5.82818L50.4158 5.99582ZM51.8552 9.45391L54.3272 8.87791L53.8734 6.93009L51.4014 7.50609L51.8552 9.45391ZM53.1496 8.21402L53.5096 9.31802L55.411 8.69798L55.051 7.59398L53.1496 8.21402ZM54.0791 8.08352L51.7511 9.04352L52.5135 10.8925L54.8415 9.93248L54.0791 8.08352ZM51.2732 10.4798L52.6172 12.7358L54.3354 11.7122L52.9914 9.45619L51.2732 10.4798ZM52.8796 11.4215L51.9436 12.1175L53.137 13.7225L54.073 13.0265L52.8796 11.4215ZM53.3115 12.2834L51.6075 10.2193L50.0652 11.4926L51.7692 13.5566L53.3115 12.2834ZM50.0652 10.2193L48.3612 12.2834L49.9035 13.5566L51.6075 11.4926L50.0652 10.2193ZM60.0996 23L59.1004 22.9584L59.057 24H60.0996V23ZM60.6996 17.84L61.6781 18.046L61.6785 18.044L60.6996 17.84ZM62.0916 13.52L61.1827 13.103L61.1805 13.1078L62.0916 13.52ZM64.5396 9.392L65.3495 9.97851L66.4984 8.392H64.5396V9.392ZM56.9076 9.392H55.9076V10.392H56.9076V9.392ZM56.9076 7.688V6.688H55.9076V7.688H56.9076ZM66.7716 7.688H67.7716V6.688H66.7716V7.688ZM66.7716 8.912L67.5627 9.52368L67.7716 9.25351V8.912H66.7716ZM64.0116 13.328L64.9183 13.7497L64.9201 13.7457L64.0116 13.328ZM62.6676 17.72L63.654 17.8844L63.6542 17.8827L62.6676 17.72ZM62.1396 23V24H63.0923L63.1384 23.0483L62.1396 23ZM61.0987 23.0416C61.1769 21.1645 61.3718 19.501 61.6781 18.046L59.721 17.634C59.3873 19.219 59.1822 20.9955 59.1004 22.9584L61.0987 23.0416ZM61.6785 18.044C61.9846 16.5751 62.4267 15.2054 63.0027 13.9322L61.1805 13.1078C60.5404 14.5226 60.0546 16.0329 59.7206 17.636L61.6785 18.044ZM63.0005 13.937C63.5934 12.6446 64.3744 11.325 65.3495 9.97851L63.7296 8.80549C62.6887 10.2429 61.8377 11.6754 61.1827 13.103L63.0005 13.937ZM64.5396 8.392H56.9076V10.392H64.5396V8.392ZM57.9076 9.392V7.688H55.9076V9.392H57.9076ZM56.9076 8.688H66.7716V6.688H56.9076V8.688ZM65.7716 7.688V8.912H67.7716V7.688H65.7716ZM65.9805 8.30032C64.7463 9.89649 63.7821 11.4333 63.103 12.9103L64.9201 13.7457C65.5211 12.4387 66.3968 11.0315 67.5627 9.52368L65.9805 8.30032ZM63.1048 12.9063C62.4252 14.3675 61.9511 15.919 61.6809 17.5573L63.6542 17.8827C63.896 16.417 64.3179 15.0405 64.9183 13.7497L63.1048 12.9063ZM61.6812 17.5556C61.4173 19.1388 61.2381 20.9388 61.1407 22.9517L63.1384 23.0483C63.233 21.0932 63.4058 19.3732 63.654 17.8844L61.6812 17.5556ZM62.1396 22H60.0996V24H62.1396V22ZM77.4053 21.92L78.1186 22.6208L77.4053 21.92ZM70.4453 21.464L69.6713 22.0973L69.6754 22.1022L70.4453 21.464ZM69.7493 10.976L68.8368 10.5666L68.8326 10.5764L69.7493 10.976ZM71.9093 8.264L72.4461 9.10767L72.45 9.10518L71.9093 8.264ZM76.9013 7.88L76.4257 8.75971L76.4398 8.76729L76.454 8.77443L76.9013 7.88ZM78.4613 9.032L79.2038 9.70177L79.8176 9.02128L79.1931 8.35058L78.4613 9.032ZM77.3573 10.256L76.5915 10.8992L77.3304 11.7788L78.0998 10.9258L77.3573 10.256ZM72.0533 10.496L72.8226 11.1349L72.8278 11.1285L72.0533 10.496ZM70.8053 15.56L69.8054 15.5403L69.7492 18.3893L71.5735 16.2002L70.8053 15.56ZM72.4853 14.168L72.0033 13.2918L72.0033 13.2918L72.4853 14.168ZM77.5493 14.84L76.835 15.5399L76.8421 15.5471L76.8493 15.5542L77.5493 14.84ZM76.1093 20.816L76.8742 21.4602L76.8823 21.4503L76.1093 20.816ZM76.1573 16.016L75.3702 16.6329L75.3794 16.6447L75.389 16.6562L76.1573 16.016ZM72.4373 15.608L71.9516 14.7338L71.9516 14.7338L72.4373 15.608ZM70.8533 17.144L70.027 16.5807L69.8271 16.8739L69.8567 17.2275L70.8533 17.144ZM77.7493 18.368C77.7493 19.6013 77.3783 20.5206 76.6919 21.2192L78.1186 22.6208C79.2242 21.4954 79.7493 20.0467 79.7493 18.368H77.7493ZM76.6919 21.2192C75.976 21.9479 75.1658 22.288 74.2133 22.288V24.288C75.7247 24.288 77.0425 23.7161 78.1186 22.6208L76.6919 21.2192ZM74.2133 22.288C73.0237 22.288 72.0441 21.8258 71.2151 20.8258L69.6754 22.1022C70.8624 23.5342 72.3948 24.288 74.2133 24.288V22.288ZM71.2192 20.8308C70.4186 19.8523 69.9333 18.2731 69.9333 15.92H67.9333C67.9333 18.4949 68.4559 20.6117 69.6713 22.0972L71.2192 20.8308ZM69.9333 15.92C69.9333 13.9466 70.1974 12.4504 70.6659 11.3756L68.8326 10.5764C68.2131 11.9976 67.9333 13.7974 67.9333 15.92H69.9333ZM70.6616 11.3854C71.1661 10.2611 71.7752 9.5346 72.4461 9.10766L71.3724 7.42034C70.2833 8.1134 69.4524 9.19494 68.8369 10.5666L70.6616 11.3854ZM72.45 9.10518C73.1943 8.6267 73.9601 8.4 74.7653 8.4V6.4C73.5544 6.4 72.4162 6.7493 71.3685 7.42282L72.45 9.10518ZM74.7653 8.4C75.4699 8.4 76.0104 8.53521 76.4257 8.75971L77.3768 7.00029C76.6081 6.58479 75.7246 6.4 74.7653 6.4V8.4ZM76.454 8.77443C76.9629 9.02888 77.3845 9.34299 77.7294 9.71342L79.1931 8.35058C78.674 7.79301 78.0556 7.33912 77.3485 6.98557L76.454 8.77443ZM77.7187 8.36223L76.6147 9.58623L78.0998 10.9258L79.2038 9.70177L77.7187 8.36223ZM78.123 9.61281C77.2689 8.5961 76.1528 8.056 74.8372 8.056V10.056C75.5377 10.056 76.1016 10.3159 76.5915 10.8992L78.123 9.61281ZM74.8372 8.056C73.4161 8.056 72.2194 8.7116 71.2787 9.86346L72.8278 11.1285C73.4551 10.3604 74.1144 10.056 74.8372 10.056V8.056ZM71.284 9.8571C70.2688 11.0794 69.8542 13.07 69.8054 15.5403L71.8051 15.5797C71.8523 13.186 72.2697 11.8006 72.8225 11.1349L71.284 9.8571ZM71.5735 16.2002C71.9758 15.7174 72.4394 15.3345 72.9672 15.0442L72.0033 13.2918C71.2511 13.7055 70.5947 14.2506 70.037 14.9198L71.5735 16.2002ZM72.9672 15.0442C73.4848 14.7595 73.9524 14.64 74.3813 14.64V12.64C73.5621 12.64 72.7657 12.8725 72.0033 13.2918L72.9672 15.0442ZM74.3813 14.64C75.4943 14.64 76.2737 14.9671 76.835 15.5399L78.2635 14.1401C77.2568 13.1129 75.9242 12.64 74.3813 12.64V14.64ZM76.8493 15.5542C77.3913 16.0853 77.7493 16.9593 77.7493 18.368H79.7493C79.7493 16.6407 79.3072 15.1627 78.2492 14.1258L76.8493 15.5542ZM74.2133 22.728C75.2789 22.728 76.1845 22.2791 76.8742 21.4601L75.3443 20.1719C75.01 20.5689 74.6516 20.728 74.2133 20.728V22.728ZM76.8823 21.4503C77.5746 20.6066 77.8773 19.5482 77.8773 18.368H75.8773C75.8773 19.2038 75.6679 19.7774 75.3362 20.1817L76.8823 21.4503ZM77.8773 18.368C77.8773 17.2183 77.5977 16.1825 76.9255 15.3758L75.389 16.6562C75.6768 17.0015 75.8773 17.5337 75.8773 18.368H77.8773ZM76.9443 15.3991C76.2433 14.5047 75.2104 14.128 74.0453 14.128V16.128C74.7681 16.128 75.1432 16.3433 75.3702 16.6329L76.9443 15.3991ZM74.0453 14.128C73.3325 14.128 72.6291 14.3575 71.9516 14.7338L72.9229 16.4822C73.3974 16.2185 73.766 16.128 74.0453 16.128V14.128ZM71.9516 14.7338C71.2055 15.1484 70.5699 15.7844 70.027 16.5807L71.6795 17.7073C72.0966 17.0956 72.517 16.7076 72.9229 16.4822L71.9516 14.7338ZM69.8567 17.2275C69.9915 18.8365 70.3619 20.1953 71.0787 21.1732C71.8373 22.2081 72.9203 22.728 74.2133 22.728V20.728C73.5222 20.728 73.0532 20.4839 72.6918 19.9908C72.2886 19.4407 71.971 18.5075 71.8498 17.0605L69.8567 17.2275ZM83.9349 16.736L82.9423 16.6153L82.8059 17.736H83.9349V16.736ZM87.1029 16.736V17.736H87.9887L88.0956 16.8567L87.1029 16.736ZM87.5349 13.184L88.5276 13.3047L88.6639 12.184H87.5349V13.184ZM84.3669 13.184V12.184H83.4812L83.3743 13.0633L84.3669 13.184ZM81.8709 23L80.8784 22.8784L80.7409 24H81.8709V23ZM82.4709 18.104L83.4635 18.2256L83.601 17.104H82.4709V18.104ZM80.5509 18.104H79.5509V19.104H80.5509V18.104ZM80.5509 16.736V15.736H79.5509V16.736H80.5509ZM82.6389 16.736V17.736H83.5247L83.6316 16.8567L82.6389 16.736ZM83.0709 13.184L84.0636 13.3047L84.1999 12.184H83.0709V13.184ZM81.0309 13.184H80.0309V14.184H81.0309V13.184ZM81.0309 11.792V10.792H80.0309V11.792H81.0309ZM83.2389 11.792V12.792H84.1211L84.2311 11.9167L83.2389 11.792ZM83.7909 7.4V6.4H82.9088L82.7987 7.2753L83.7909 7.4ZM85.0629 7.4L86.0551 7.5247L86.1965 6.4H85.0629V7.4ZM84.5109 11.792L83.5187 11.6673L83.3774 12.792H84.5109V11.792ZM87.7029 11.792V12.792H88.5804L88.6944 11.922L87.7029 11.792ZM88.2789 7.4V6.4H87.4015L87.2874 7.26997L88.2789 7.4ZM89.5509 7.4L90.5424 7.53003L90.6906 6.4H89.5509V7.4ZM88.9749 11.792L87.9834 11.662L87.8352 12.792H88.9749V11.792ZM90.9189 11.792H91.9189V10.792H90.9189V11.792ZM90.9189 13.184V14.184H91.9189V13.184H90.9189ZM88.8309 13.184V12.184H87.9452L87.8383 13.0633L88.8309 13.184ZM88.3989 16.736L87.4063 16.6153L87.2699 17.736H88.3989V16.736ZM90.4389 16.736H91.4389V15.736H90.4389V16.736ZM90.4389 18.104V19.104H91.4389V18.104H90.4389ZM88.2309 18.104V17.104H87.346L87.2384 17.9824L88.2309 18.104ZM87.6309 23V24H88.5159L88.6235 23.1216L87.6309 23ZM86.3589 23L85.3658 22.8832L85.2344 24H86.3589V23ZM86.9349 18.104L87.9281 18.2208L88.0595 17.104H86.9349V18.104ZM83.7669 18.104V17.104H82.882L82.7744 17.9824L83.7669 18.104ZM83.1669 23V24H84.0519L84.1595 23.1216L83.1669 23ZM83.9349 17.736H87.1029V15.736H83.9349V17.736ZM88.0956 16.8567L88.5276 13.3047L86.5423 13.0633L86.1103 16.6153L88.0956 16.8567ZM87.5349 12.184H84.3669V14.184H87.5349V12.184ZM83.3743 13.0633L82.9423 16.6153L84.9276 16.8567L85.3596 13.3047L83.3743 13.0633ZM82.8635 23.1216L83.4635 18.2256L81.4784 17.9824L80.8784 22.8784L82.8635 23.1216ZM82.4709 17.104H80.5509V19.104H82.4709V17.104ZM81.5509 18.104V16.736H79.5509V18.104H81.5509ZM80.5509 17.736H82.6389V15.736H80.5509V17.736ZM83.6316 16.8567L84.0636 13.3047L82.0783 13.0633L81.6463 16.6153L83.6316 16.8567ZM83.0709 12.184H81.0309V14.184H83.0709V12.184ZM82.0309 13.184V11.792H80.0309V13.184H82.0309ZM81.0309 12.792H83.2389V10.792H81.0309V12.792ZM84.2311 11.9167L84.7831 7.5247L82.7987 7.2753L82.2467 11.6673L84.2311 11.9167ZM83.7909 8.4H85.0629V6.4H83.7909V8.4ZM84.0707 7.2753L83.5187 11.6673L85.5031 11.9167L86.0551 7.5247L84.0707 7.2753ZM84.5109 12.792H87.7029V10.792H84.5109V12.792ZM88.6944 11.922L89.2704 7.53003L87.2874 7.26997L86.7114 11.662L88.6944 11.922ZM88.2789 8.4H89.5509V6.4H88.2789V8.4ZM88.5594 7.26997L87.9834 11.662L89.9664 11.922L90.5424 7.53003L88.5594 7.26997ZM88.9749 12.792H90.9189V10.792H88.9749V12.792ZM89.9189 11.792V13.184H91.9189V11.792H89.9189ZM90.9189 12.184H88.8309V14.184H90.9189V12.184ZM87.8383 13.0633L87.4063 16.6153L89.3916 16.8567L89.8236 13.3047L87.8383 13.0633ZM88.3989 17.736H90.4389V15.736H88.3989V17.736ZM89.4389 16.736V18.104H91.4389V16.736H89.4389ZM90.4389 17.104H88.2309V19.104H90.4389V17.104ZM87.2384 17.9824L86.6384 22.8784L88.6235 23.1216L89.2235 18.2256L87.2384 17.9824ZM87.6309 22H86.3589V24H87.6309V22ZM87.3521 23.1168L87.9281 18.2208L85.9418 17.9872L85.3658 22.8832L87.3521 23.1168ZM86.9349 17.104H83.7669V19.104H86.9349V17.104ZM82.7744 17.9824L82.1744 22.8784L84.1595 23.1216L84.7595 18.2256L82.7744 17.9824ZM83.1669 22H81.8709V24H83.1669V22Z" fill="url(#paint0_linear)"/>
<defs>
<linearGradient id="paint0_linear" x1="46" y1="0" x2="46" y2="31" gradientUnits="userSpaceOnUse">
<stop stop-color="#4AAEEA"/>
<stop offset="1" stop-color="white" stop-opacity="0"/>
</linearGradient>
</defs>
</svg>
