<svg width="100" height="100" viewBox="0 0 100 100" fill="none" xmlns="http://www.w3.org/2000/svg">
<circle cx="50" cy="50" r="50" fill="#B6BDDE" fill-opacity="0.77"/>
<path d="M52.8459 43.107C58.5839 43.107 64.1602 38.7001 64.1602 31.3121C64.1602 25.0742 59.0838 20 52.8459 20H31.3143C25.537 20 20 24.4412 20 31.7949C20 37.4351 24.1492 42.1238 29.5562 42.9711V50.4887C29.5562 52.0948 31.5524 52.8649 32.6271 51.657L40.2458 43.107H52.8459ZM52.799 29.3762C54.0027 29.3762 54.9779 30.3512 54.9779 31.5535C54.9779 32.7559 54.0027 33.7309 52.799 33.7309C51.5964 33.7309 50.6212 32.7559 50.6212 31.5535C50.6212 30.3512 51.5964 29.3762 52.799 29.3762ZM31.36 33.7309C30.1575 33.7309 29.1823 32.7559 29.1823 31.5535C29.1823 30.3512 30.1575 29.3762 31.36 29.3762C32.5638 29.3762 33.539 30.3512 33.539 31.5535C33.539 32.7559 32.5638 33.7309 31.36 33.7309ZM42.0801 29.3762C43.2827 29.3762 44.2579 30.3512 44.2579 31.5535C44.2579 32.7559 43.2827 33.7309 42.0801 33.7309C40.8775 33.7309 39.9023 32.7559 39.9023 31.5535C39.9023 30.3512 40.8775 29.3762 42.0801 29.3762Z" fill="#2B3C96"/>
<path d="M68.6857 47.7534H47.1541C40.9162 47.7534 35.8398 52.8288 35.8398 59.0667C35.8398 66.3526 41.3229 70.8616 47.1541 70.8616H59.7542L67.3729 79.4116C68.4383 80.6092 70.4438 79.8584 70.4438 78.2421V70.7245C75.8507 69.8772 80 65.1886 80 59.5483C80 52.278 74.5315 47.7534 68.6857 47.7534V47.7534ZM47.201 61.4853C45.9972 61.4853 45.022 60.5103 45.022 59.3068C45.022 58.1045 45.9972 57.1295 47.201 57.1295C48.4036 57.1295 49.3788 58.1045 49.3788 59.3068C49.3788 60.5103 48.4036 61.4853 47.201 61.4853ZM57.9199 61.4853C56.7173 61.4853 55.7421 60.5103 55.7421 59.3068C55.7421 58.1045 56.7173 57.1295 57.9199 57.1295C59.1225 57.1295 60.0976 58.1045 60.0976 59.3068C60.0976 60.5103 59.1225 61.4853 57.9199 61.4853ZM68.6399 61.4853C67.4362 61.4853 66.461 60.5103 66.461 59.3068C66.461 58.1045 67.4362 57.1295 68.6399 57.1295C69.8425 57.1295 70.8177 58.1045 70.8177 59.3068C70.8177 60.5103 69.8425 61.4853 68.6399 61.4853Z" fill="#2B3C96"/>
</svg>
