<svg width="148" height="148" viewBox="0 0 148 148" fill="none" xmlns="http://www.w3.org/2000/svg">
<g filter="url(#filter0_d)">
<circle cx="74" cy="70" r="70" fill="white"/>
</g>
<path d="M77.3585 61.9852C84.0596 61.9852 90.5717 56.8386 90.5717 48.2107C90.5717 40.9258 84.6434 35 77.3585 35H52.2132C45.4663 35 39 40.1865 39 48.7745C39 55.3614 43.8456 60.8369 50.16 61.8264V70.6057C50.16 72.4814 52.4912 73.3807 53.7463 71.9701L62.6437 61.9852H77.3585ZM77.3037 45.9498C78.7095 45.9498 79.8484 47.0884 79.8484 48.4926C79.8484 49.8967 78.7095 51.0354 77.3037 51.0354C75.8993 51.0354 74.7605 49.8967 74.7605 48.4926C74.7605 47.0884 75.8993 45.9498 77.3037 45.9498ZM52.2666 51.0354C50.8622 51.0354 49.7233 49.8967 49.7233 48.4926C49.7233 47.0884 50.8622 45.9498 52.2666 45.9498C53.6724 45.9498 54.8113 47.0884 54.8113 48.4926C54.8113 49.8967 53.6724 51.0354 52.2666 51.0354ZM64.7859 45.9498C66.1903 45.9498 67.3291 47.0884 67.3291 48.4926C67.3291 49.8967 66.1903 51.0354 64.7859 51.0354C63.3815 51.0354 62.2426 49.8967 62.2426 48.4926C62.2426 47.0884 63.3815 45.9498 64.7859 45.9498Z" fill="#2B3C96"/>
<path d="M95.8567 67.4114H70.7115C63.4266 67.4114 57.4982 73.3386 57.4982 80.6234C57.4982 89.1321 63.9016 94.3979 70.7115 94.3979H85.4263L94.3236 104.383C95.5679 105.781 97.91 104.905 97.91 103.017V94.2378C104.224 93.2483 109.07 87.7727 109.07 81.1859C109.07 72.6954 102.684 67.4114 95.8567 67.4114V67.4114ZM70.7662 83.448C69.3604 83.448 68.2216 82.3093 68.2216 80.9038C68.2216 79.4997 69.3604 78.361 70.7662 78.361C72.1706 78.361 73.3095 79.4997 73.3095 80.9038C73.3095 82.3093 72.1706 83.448 70.7662 83.448ZM83.2841 83.448C81.8797 83.448 80.7408 82.3093 80.7408 80.9038C80.7408 79.4997 81.8797 78.361 83.2841 78.361C84.6885 78.361 85.8274 79.4997 85.8274 80.9038C85.8274 82.3093 84.6885 83.448 83.2841 83.448ZM95.8033 83.448C94.3976 83.448 93.2587 82.3093 93.2587 80.9038C93.2587 79.4997 94.3976 78.361 95.8033 78.361C97.2078 78.361 98.3466 79.4997 98.3466 80.9038C98.3466 82.3093 97.2078 83.448 95.8033 83.448Z" fill="#2B3C96"/>
<defs>
<filter id="filter0_d" x="0" y="0" width="148" height="148" filterUnits="userSpaceOnUse" color-interpolation-filters="sRGB">
<feFlood flood-opacity="0" result="BackgroundImageFix"/>
<feColorMatrix in="SourceAlpha" type="matrix" values="0 0 0 0 0 0 0 0 0 0 0 0 0 0 0 0 0 0 127 0"/>
<feOffset dy="4"/>
<feGaussianBlur stdDeviation="2"/>
<feColorMatrix type="matrix" values="0 0 0 0 0 0 0 0 0 0 0 0 0 0 0 0 0 0 0.25 0"/>
<feBlend mode="normal" in2="BackgroundImageFix" result="effect1_dropShadow"/>
<feBlend mode="normal" in="SourceGraphic" in2="effect1_dropShadow" result="shape"/>
</filter>
</defs>
</svg>
