<svg width="100" height="100" viewBox="0 0 100 100" fill="none" xmlns="http://www.w3.org/2000/svg">
<circle cx="50" cy="50" r="50" fill="#B6BDDE" fill-opacity="0.77"/>
<path d="M82.92 67.6423C82.8579 67.5578 82.7665 67.5078 82.6704 67.5078H18.3299C18.2338 67.5078 18.143 67.5571 18.0803 67.6423C18.0176 67.7267 17.9895 67.8401 18.0035 67.9518C18.0129 68.0222 18.9834 75 26.5156 75H74.4847C82.0163 75 82.9867 68.0222 82.9967 67.9518C83.0101 67.8401 82.9821 67.7267 82.92 67.6423ZM55.3388 72.5563H45.6608V69.95H55.3388V72.5563Z" fill="#2B3C96"/>
<path d="M25.0131 64.7952H75.9865C76.7233 64.7952 77.3214 64.0948 77.3214 63.2317V26.5635C77.3214 25.7004 76.7233 25 75.9865 25H25.0131C24.2763 25 23.6782 25.7004 23.6782 26.5635V63.2317C23.6782 64.0948 24.2763 64.7952 25.0131 64.7952ZM28.3504 30.4722H72.6492V59.323H28.3504V30.4722V30.4722Z" fill="#2B3C96"/>
</svg>
