<svg width="148" height="148" viewBox="0 0 148 148" fill="none" xmlns="http://www.w3.org/2000/svg">
<g filter="url(#filter0_d)">
<circle cx="74" cy="70" r="70" fill="white"/>
</g>
<path d="M108.984 94.7587C108.917 94.6404 108.818 94.5703 108.715 94.5703H39.3557C39.252 94.5703 39.1542 94.6393 39.0866 94.7587C39.0189 94.8771 38.9887 95.0359 39.0038 95.1926C39.0139 95.2912 40.0601 105.07 48.1798 105.07H99.8905C108.01 105.07 109.056 95.2912 109.066 95.1926C109.081 95.0359 109.051 94.8771 108.984 94.7587ZM79.2513 101.645H68.8183V97.9927H79.2513V101.645Z" fill="#2B3C96"/>
<path d="M46.5602 90.769H101.51C102.304 90.769 102.949 89.7874 102.949 88.5779V37.1911C102.949 35.9816 102.304 35 101.51 35H46.5602C45.7659 35 45.1212 35.9816 45.1212 37.1911V88.5779C45.1212 89.7874 45.7659 90.769 46.5602 90.769ZM50.1578 42.6687H97.912V83.1003H50.1578V42.6687V42.6687Z" fill="#2B3C96"/>
<defs>
<filter id="filter0_d" x="0" y="0" width="148" height="148" filterUnits="userSpaceOnUse" color-interpolation-filters="sRGB">
<feFlood flood-opacity="0" result="BackgroundImageFix"/>
<feColorMatrix in="SourceAlpha" type="matrix" values="0 0 0 0 0 0 0 0 0 0 0 0 0 0 0 0 0 0 127 0"/>
<feOffset dy="4"/>
<feGaussianBlur stdDeviation="2"/>
<feColorMatrix type="matrix" values="0 0 0 0 0 0 0 0 0 0 0 0 0 0 0 0 0 0 0.25 0"/>
<feBlend mode="normal" in2="BackgroundImageFix" result="effect1_dropShadow"/>
<feBlend mode="normal" in="SourceGraphic" in2="effect1_dropShadow" result="shape"/>
</filter>
</defs>
</svg>
