<svg width="100" height="100" viewBox="0 0 100 100" fill="none" xmlns="http://www.w3.org/2000/svg">
<circle cx="50" cy="50" r="50" fill="#B6BDDE" fill-opacity="0.77"/>
<path d="M78.243 47.8655H71.7662H70.8998C68.9852 47.8655 67.4323 49.4184 67.4323 51.3395V51.7161C67.4323 53.6391 68.9852 55.1929 70.9026 55.1929H77.3859H78.243C80.1614 55.1929 81.7189 53.6326 81.7189 51.7161L81.7152 51.3349C81.7189 49.4184 80.1614 47.8655 78.243 47.8655Z" fill="#2B3C96"/>
<path d="M78.2468 39.1985H76.7171V22.3915C76.7171 19.9759 74.7412 18 72.3247 18H43.346C40.9304 18 38.9545 19.9768 38.9545 22.3915V34.4499C33.1095 37.7542 27.0807 41.2059 27.0677 41.2143C23.795 42.5612 19 46.9072 19 57.1698C19 58.0863 19.0603 58.9323 19.1447 59.7495C19.1716 59.9889 19.2013 60.2189 19.2338 60.4499C19.3182 61.0501 19.4239 61.6243 19.5501 62.1698C19.5955 62.3646 19.6308 62.5677 19.68 62.7542C19.8497 63.385 20.0464 63.9768 20.2672 64.5399C20.3785 64.8191 20.4991 65.0733 20.6206 65.3349C20.7505 65.6104 20.8813 65.8813 21.0213 66.1345C21.1837 66.4397 21.346 66.7338 21.5241 67.013C21.5668 67.0779 21.6132 67.1373 21.6568 67.2032C25.8831 73.5918 33.68 73.6206 33.68 73.6206H38.9545V78.6104C38.9545 81.0232 40.9304 82.9991 43.346 82.9991H72.3237C74.7403 82.9991 76.7161 81.0223 76.7161 78.6104V72.5241H77.3859V72.5204H78.2403C80.1614 72.5204 81.7189 70.9666 81.7152 69.0455L81.7189 68.667C81.7152 66.7486 80.1614 65.1994 78.243 65.1994H77.3859H71.7653H70.8989C68.9805 65.1994 67.4314 66.7523 67.4314 68.6698V69.0547C67.4314 70.9675 68.9842 72.5269 70.9017 72.5269H73.6605V74.8776H42.0093V43.346C43.5993 42.3377 45.0714 41.3673 45.9109 40.7171C50.1642 37.4276 54.2013 34.808 54.7477 32.4323C55.4592 29.3497 53.0928 26.7523 48.9879 28.885C47.6948 29.5566 45.0408 31.0288 42.0093 32.731V24.9592L73.6605 24.9638V39.1967H71.7653V39.2004H70.9035C68.9842 39.2004 67.4267 40.7532 67.4267 42.6763V43.0529C67.4267 44.975 68.9842 46.5241 70.8989 46.5241H71.7607H77.3813H78.2449C80.1614 46.5241 81.7152 44.9712 81.7152 43.0529V42.666C81.7189 40.756 80.166 39.1985 78.2468 39.1985ZM57.8312 76.4193C59.0482 76.4193 60.0297 77.4017 60.0297 78.616C60.0297 79.833 59.0473 80.8117 57.8312 80.8117C56.6187 80.8117 55.6391 79.8302 55.6391 78.616C55.641 77.4054 56.6234 76.4193 57.8312 76.4193ZM62.4722 22.2282H53.1994C52.9082 22.2282 52.667 21.9917 52.667 21.6994C52.667 21.4026 52.9082 21.166 53.1994 21.166H62.4722C62.7634 21.166 63.0009 21.4017 63.0009 21.6994C63.0009 21.9907 62.7634 22.2282 62.4722 22.2282Z" fill="#2B3C96"/>
<path d="M78.243 56.5325H77.3859H70.8998C68.9852 56.5325 67.4276 58.09 67.4276 60.0074V60.3878C67.4276 62.3071 68.9814 63.8599 70.8998 63.8599H71.7616H77.3822H78.2412C80.1623 63.8599 81.7115 62.3071 81.7161 60.3878V60.0074C81.7152 58.09 80.166 56.5325 78.243 56.5325Z" fill="#2B3C96"/>
</svg>
