<svg width="148" height="148" viewBox="0 0 148 148" fill="none" xmlns="http://www.w3.org/2000/svg">
<g filter="url(#filter0_d)">
<circle cx="74" cy="70" r="70" fill="white"/>
</g>
<path d="M105.187 67.1951H97.9508H96.9828C94.8438 67.1951 93.1089 68.8691 93.1089 70.9401V71.3461C93.1089 73.4191 94.8438 75.0941 96.9859 75.0941H104.229H105.187C107.33 75.0941 109.07 73.4121 109.07 71.3461L109.066 70.9351C109.07 68.8691 107.33 67.1951 105.187 67.1951Z" fill="#2B3C96"/>
<path d="M105.191 57.852H103.482V39.734C103.482 37.13 101.274 35 98.5747 35H66.1995C63.5008 35 61.2934 37.131 61.2934 39.734V52.733C54.7632 56.295 48.0278 60.016 48.0133 60.025C44.357 61.477 39 66.162 39 77.225C39 78.213 39.0674 79.125 39.1617 80.006C39.1917 80.264 39.2249 80.512 39.2612 80.761C39.3555 81.408 39.4736 82.027 39.6146 82.615C39.6653 82.825 39.7047 83.044 39.7597 83.245C39.9493 83.925 40.169 84.563 40.4157 85.17C40.54 85.471 40.6748 85.745 40.8105 86.027C40.9556 86.324 41.1018 86.616 41.2582 86.889C41.4396 87.218 41.621 87.535 41.82 87.836C41.8676 87.906 41.9195 87.97 41.9682 88.041C46.6899 94.928 55.4006 94.959 55.4006 94.959H61.2934V100.338C61.2934 102.939 63.5008 105.069 66.1995 105.069H98.5736C101.273 105.069 103.481 102.938 103.481 100.338V93.777H104.229V93.773H105.184C107.33 93.773 109.07 92.098 109.066 90.027L109.07 89.619C109.066 87.551 107.33 85.881 105.187 85.881H104.229H97.9498H96.9818C94.8386 85.881 93.1078 87.555 93.1078 89.622V90.037C93.1078 92.099 94.8427 93.78 96.9849 93.78H100.067V96.314H64.7061V62.323C66.4825 61.236 68.1272 60.19 69.0651 59.489C73.8168 55.943 78.3271 53.119 78.9375 50.558C79.7324 47.235 77.0887 44.435 72.5027 46.734C71.058 47.458 68.093 49.045 64.7061 50.88V42.502L100.067 42.507V57.85H97.9498V57.854H96.987C94.8427 57.854 93.1026 59.528 93.1026 61.601V62.007C93.1026 64.079 94.8427 65.749 96.9818 65.749H97.9446H104.224H105.189C107.33 65.749 109.066 64.075 109.066 62.007V61.59C109.07 59.531 107.335 57.852 105.191 57.852ZM82.3824 97.976C83.7422 97.976 84.8386 99.035 84.8386 100.344C84.8386 101.656 83.7411 102.711 82.3824 102.711C81.0279 102.711 79.9335 101.653 79.9335 100.344C79.9356 99.039 81.0331 97.976 82.3824 97.976ZM87.5674 39.558H77.2078C76.8824 39.558 76.613 39.303 76.613 38.988C76.613 38.668 76.8824 38.413 77.2078 38.413H87.5674C87.8928 38.413 88.1581 38.667 88.1581 38.988C88.1581 39.302 87.8928 39.558 87.5674 39.558Z" fill="#2B3C96"/>
<path d="M105.187 76.5381H104.229H96.9828C94.8438 76.5381 93.1037 78.2171 93.1037 80.2841V80.6941C93.1037 82.7631 94.8396 84.4371 96.9828 84.4371H97.9456H104.225H105.185C107.331 84.4371 109.062 82.7631 109.067 80.6941V80.2841C109.066 78.2171 107.335 76.5381 105.187 76.5381Z" fill="#2B3C96"/>
<defs>
<filter id="filter0_d" x="0" y="0" width="148" height="148" filterUnits="userSpaceOnUse" color-interpolation-filters="sRGB">
<feFlood flood-opacity="0" result="BackgroundImageFix"/>
<feColorMatrix in="SourceAlpha" type="matrix" values="0 0 0 0 0 0 0 0 0 0 0 0 0 0 0 0 0 0 127 0"/>
<feOffset dy="4"/>
<feGaussianBlur stdDeviation="2"/>
<feColorMatrix type="matrix" values="0 0 0 0 0 0 0 0 0 0 0 0 0 0 0 0 0 0 0.25 0"/>
<feBlend mode="normal" in2="BackgroundImageFix" result="effect1_dropShadow"/>
<feBlend mode="normal" in="SourceGraphic" in2="effect1_dropShadow" result="shape"/>
</filter>
</defs>
</svg>
