<svg width="148" height="148" viewBox="0 0 148 148" fill="none" xmlns="http://www.w3.org/2000/svg">
<g filter="url(#filter0_d)">
<circle cx="74" cy="70" r="70" fill="white"/>
</g>
<path fill-rule="evenodd" clip-rule="evenodd" d="M107.055 70.7345C104.082 68.5109 99.2199 68.7916 96.7144 71.2888C93.9593 68.5428 88.4858 68.5428 85.7307 71.2888C83.4566 69.0222 79.173 68.5416 76.1257 70.2593V58.7939C76.1257 55.9683 73.0395 53.6592 69.2618 53.6592C65.4838 53.6592 62.3978 55.9678 62.3978 58.7939L62.4145 81.2567C59.7209 79.453 55.5631 79.5274 52.9894 81.4528C50.3122 83.4555 50.5102 86.5596 52.925 88.6547C59.0218 93.9445 65.0921 99.8881 71.6963 104.769C71.9437 104.954 72.2854 105.069 72.6627 105.069L107.577 105.069C108.439 105.097 109.07 104.637 109.07 104.046V74.3615C109.07 72.9489 108.298 71.6648 107.055 70.7345Z" fill="#2B3C96"/>
<path fill-rule="evenodd" clip-rule="evenodd" d="M47.2785 47.3859C51.8382 47.3859 55.5571 44.604 55.5571 41.193C55.5571 37.782 51.8381 35 47.2785 35C42.7189 35 39 37.782 39 41.193C39 44.604 42.7189 47.3859 47.2785 47.3859Z" fill="#2B3C96"/>
<path fill-rule="evenodd" clip-rule="evenodd" d="M69.1532 47.3859C73.7129 47.3859 77.4317 44.604 77.4317 41.193C77.4317 37.782 73.7129 35 69.1532 35C64.5935 35 60.8746 37.782 60.8746 41.193C60.8746 44.604 64.5935 47.3859 69.1532 47.3859Z" fill="#2B3C96"/>
<path fill-rule="evenodd" clip-rule="evenodd" d="M91.1867 47.3859C95.7464 47.3859 99.4652 44.604 99.4652 41.193C99.4652 37.782 95.7464 35 91.1867 35C86.627 35 82.9081 37.782 82.9081 41.193C82.9081 44.604 86.627 47.3859 91.1867 47.3859Z" fill="#2B3C96"/>
<path fill-rule="evenodd" clip-rule="evenodd" d="M47.2785 63.8095C51.8382 63.8095 55.5571 61.0275 55.5571 57.6165C55.5571 54.2056 51.8381 51.4236 47.2785 51.4236C42.7189 51.4236 39 54.2056 39 57.6165C39 61.0275 42.7189 63.8095 47.2785 63.8095Z" fill="#2B3C96"/>
<path fill-rule="evenodd" clip-rule="evenodd" d="M91.1867 63.8095C95.7464 63.8095 99.4652 61.0275 99.4652 57.6165C99.4652 54.2056 95.7464 51.4236 91.1867 51.4236C86.627 51.4236 82.9081 54.2056 82.9081 57.6165C82.9081 61.0275 86.627 63.8095 91.1867 63.8095Z" fill="#2B3C96"/>
<path fill-rule="evenodd" clip-rule="evenodd" d="M55.5571 74.0055C55.5571 70.5945 51.8382 67.8125 47.2785 67.8125C42.7189 67.8125 39 70.5945 39 74.0055C39 77.4164 42.7189 80.1984 47.2785 80.1984C51.8381 80.1984 55.5571 77.4163 55.5571 74.0055Z" fill="#2B3C96"/>
<defs>
<filter id="filter0_d" x="0" y="0" width="148" height="148" filterUnits="userSpaceOnUse" color-interpolation-filters="sRGB">
<feFlood flood-opacity="0" result="BackgroundImageFix"/>
<feColorMatrix in="SourceAlpha" type="matrix" values="0 0 0 0 0 0 0 0 0 0 0 0 0 0 0 0 0 0 127 0"/>
<feOffset dy="4"/>
<feGaussianBlur stdDeviation="2"/>
<feColorMatrix type="matrix" values="0 0 0 0 0 0 0 0 0 0 0 0 0 0 0 0 0 0 0.25 0"/>
<feBlend mode="normal" in2="BackgroundImageFix" result="effect1_dropShadow"/>
<feBlend mode="normal" in="SourceGraphic" in2="effect1_dropShadow" result="shape"/>
</filter>
</defs>
</svg>
