<svg width="100" height="100" viewBox="0 0 100 100" fill="none" xmlns="http://www.w3.org/2000/svg">
<circle cx="50" cy="50" r="50" fill="#B6BDDE" fill-opacity="0.77"/>
<path fill-rule="evenodd" clip-rule="evenodd" d="M73.5618 50.1489C71.4408 48.0862 67.9712 48.3466 66.1833 50.6631C64.2174 48.1158 60.3116 48.1158 58.3457 50.6631C56.723 48.5605 53.6663 48.1147 51.4919 49.7081V39.0723C51.4919 36.4511 49.2897 34.3091 46.594 34.3091C43.8981 34.3091 41.696 36.4506 41.696 39.0723L41.7079 59.9097C39.7858 58.2365 36.819 58.3056 34.9824 60.0917C33.0721 61.9494 33.2133 64.829 34.9364 66.7725C39.287 71.6795 43.6186 77.1931 48.3312 81.7209C48.5077 81.8926 48.7515 81.9987 49.0207 81.9987L73.9348 81.9988C74.55 82.025 75 81.5981 75 81.0503V53.5134C75.0002 52.2031 74.4493 51.0119 73.5618 50.1489Z" fill="#2B3C96"/>
<path fill-rule="evenodd" clip-rule="evenodd" d="M30.9073 28.4897C34.161 28.4897 36.8147 25.909 36.8147 22.7449C36.8147 19.5807 34.1609 17 30.9073 17C27.6537 17 25 19.5807 25 22.7449C25 25.909 27.6537 28.4897 30.9073 28.4897Z" fill="#2B3C96"/>
<path fill-rule="evenodd" clip-rule="evenodd" d="M46.5165 28.4897C49.7701 28.4897 52.4238 25.909 52.4238 22.7449C52.4238 19.5807 49.7701 17 46.5165 17C43.2628 17 40.6091 19.5807 40.6091 22.7449C40.6091 25.909 43.2628 28.4897 46.5165 28.4897Z" fill="#2B3C96"/>
<path fill-rule="evenodd" clip-rule="evenodd" d="M62.2389 28.4897C65.4926 28.4897 68.1463 25.909 68.1463 22.7449C68.1463 19.5807 65.4926 17 62.2389 17C58.9853 17 56.3316 19.5807 56.3316 22.7449C56.3316 25.909 58.9853 28.4897 62.2389 28.4897Z" fill="#2B3C96"/>
<path fill-rule="evenodd" clip-rule="evenodd" d="M30.9073 43.7251C34.161 43.7251 36.8147 41.1444 36.8147 37.9802C36.8147 34.816 34.1609 32.2354 30.9073 32.2354C27.6537 32.2354 25 34.816 25 37.9802C25 41.1444 27.6537 43.7251 30.9073 43.7251Z" fill="#2B3C96"/>
<path fill-rule="evenodd" clip-rule="evenodd" d="M62.239 43.7251C65.4926 43.7251 68.1463 41.1444 68.1463 37.9802C68.1463 34.816 65.4926 32.2354 62.239 32.2354C58.9853 32.2354 56.3316 34.816 56.3316 37.9802C56.3316 41.1444 58.9853 43.7251 62.239 43.7251Z" fill="#2B3C96"/>
<path fill-rule="evenodd" clip-rule="evenodd" d="M36.8147 53.1831C36.8147 50.0189 34.161 47.4382 30.9073 47.4382C27.6537 47.4382 25 50.0189 25 53.1831C25 56.3473 27.6537 58.9279 30.9073 58.9279C34.1609 58.9279 36.8147 56.3471 36.8147 53.1831Z" fill="#2B3C96"/>
</svg>
